<?xml version="1.0" encoding="UTF-8" standalone="no"?>
<!-- Created with Inkscape (http://www.inkscape.org/) -->

<svg
   xmlns:dc="http://purl.org/dc/elements/1.1/"
   xmlns:cc="http://creativecommons.org/ns#"
   xmlns:rdf="http://www.w3.org/1999/02/22-rdf-syntax-ns#"
   xmlns:svg="http://www.w3.org/2000/svg"
   xmlns="http://www.w3.org/2000/svg"
   xmlns:sodipodi="http://sodipodi.sourceforge.net/DTD/sodipodi-0.dtd"
   xmlns:inkscape="http://www.inkscape.org/namespaces/inkscape"
   width="8.0070267mm"
   height="6.9396591mm"
   viewBox="0 0 28.371354 24.589343"
   id="svg6505"
   version="1.1"
   inkscape:version="0.91 r13725"
   sodipodi:docname="freepik_icon.svg">
  <defs
     id="defs6507" />
  <sodipodi:namedview
     id="base"
     pagecolor="#ffffff"
     bordercolor="#666666"
     borderopacity="1.0"
     inkscape:pageopacity="0.0"
     inkscape:pageshadow="2"
     inkscape:zoom="0.98994949"
     inkscape:cx="250.95065"
     inkscape:cy="41.811673"
     inkscape:document-units="px"
     inkscape:current-layer="layer1"
     showgrid="false"
     fit-margin-top="0"
     fit-margin-left="0"
     fit-margin-right="0"
     fit-margin-bottom="0"
     inkscape:window-width="1536"
     inkscape:window-height="801"
     inkscape:window-x="-8"
     inkscape:window-y="1072"
     inkscape:window-maximized="1" />
  <metadata
     id="metadata6510">
    <rdf:RDF>
      <cc:Work
         rdf:about="">
        <dc:format>image/svg+xml</dc:format>
        <dc:type
           rdf:resource="http://purl.org/dc/dcmitype/StillImage" />
        <dc:title></dc:title>
      </cc:Work>
    </rdf:RDF>
  </metadata>
  <g
     inkscape:label="Layer 1"
     inkscape:groupmode="layer"
     id="layer1"
     transform="translate(60.614249,-520.06753)">
    <g
       transform="matrix(1.2070815,0,0,-1.2070815,-56.272018,536.1525)"
       id="g20321">
      <path
         inkscape:connector-curvature="0"
         id="path20323"
         style="fill:#076b00;fill-opacity:1;fill-rule:nonzero;stroke:none"
         d="M 0,0 C -0.002,0.005 -0.002,0.01 -0.002,0.018 -0.002,0.01 -0.002,0.005 0,0" />
    </g>
    <g
       transform="matrix(1.2070815,0,0,-1.2070815,-56.114138,537.15329)"
       id="g20325">
      <path
         inkscape:connector-curvature="0"
         id="path20327"
         style="fill:#076b00;fill-opacity:1;fill-rule:nonzero;stroke:none"
         d="M 0,0 0.003,0 C -0.047,0.236 -0.085,0.471 -0.116,0.702 -0.085,0.469 -0.047,0.233 0,0" />
    </g>
    <g
       transform="matrix(1.2070815,0,0,-1.2070815,-55.077978,540.05789)"
       id="g20329">
      <path
         inkscape:connector-curvature="0"
         id="path20331"
         style="fill:#076b00;fill-opacity:1;fill-rule:nonzero;stroke:none"
         d="M 0,0 C -0.006,0.01 -0.011,0.021 -0.017,0.033 -0.011,0.021 -0.006,0.01 0,0" />
    </g>
    <g
       transform="matrix(1.2070815,0,0,-1.2070815,-55.176958,539.86452)"
       id="g20333">
      <path
         inkscape:connector-curvature="0"
         id="path20335"
         style="fill:#076b00;fill-opacity:1;fill-rule:nonzero;stroke:none"
         d="M 0,0 C -0.022,0.044 -0.044,0.09 -0.065,0.134 -0.044,0.087 -0.022,0.044 0,0" />
    </g>
    <g
       transform="matrix(1.2070815,0,0,-1.2070815,-55.822988,538.27201)"
       id="g20337">
      <path
         inkscape:connector-curvature="0"
         id="path20339"
         style="fill:#076b00;fill-opacity:1;fill-rule:nonzero;stroke:none"
         d="M 0,0 C 0.127,-0.4 0.28,-0.788 0.457,-1.158 0.277,-0.78 0.127,-0.392 0.003,0 L 0,0 Z" />
    </g>
    <g
       transform="matrix(1.2070815,0,0,-1.2070815,-44.155818,524.15833)"
       id="g20341">
      <path
         inkscape:connector-curvature="0"
         id="path20343"
         style="fill:#076b00;fill-opacity:1;fill-rule:nonzero;stroke:none"
         d="m 0,0 c 0.501,0 0.871,-0.04 1.295,-0.111 l 0.12,0.762 c 0,0 -1.171,0.361 -2.71,0.235 l -0.122,0.415 c 0.479,0.1 0.838,0.526 0.838,1.034 0,0.582 -0.474,1.054 -1.057,1.054 -0.583,0 -1.055,-0.472 -1.055,-1.054 0,-0.508 0.358,-0.934 0.836,-1.034 L -1.722,0.838 C -3.356,0.613 -4.657,-0.024 -4.657,-0.024 l 0.231,-0.706 c 0.988,0.33 1.846,0.53 2.624,0.614 C -1.041,-0.035 -0.467,0 0,0" />
    </g>
    <g
       transform="matrix(1.2070815,0,0,-1.2070815,-55.101508,528.81574)"
       id="g20345">
      <path
         inkscape:connector-curvature="0"
         id="path20347"
         style="fill:#076b00;fill-opacity:1;fill-rule:nonzero;stroke:none"
         d="m 0,0 0.006,0.008 c 0.038,0.05 0.075,0.096 0.113,0.142 l -0.313,0.226 -0.488,0.356 c -0.027,-0.038 -0.795,-0.744 -1.401,-2.047 -0.025,0.041 -0.056,0.081 -0.09,0.119 -0.181,0.198 -0.435,0.3 -0.758,0.294 l -0.015,0 c -0.2,0 -0.337,0.066 -0.427,0.147 0.09,0.113 0.144,0.256 0.144,0.413 0,0.368 -0.3,0.669 -0.67,0.669 -0.369,0 -0.668,-0.301 -0.668,-0.669 0,-0.37 0.299,-0.669 0.668,-0.669 0.058,0 0.113,0.01 0.167,0.021 0.165,-0.183 0.425,-0.342 0.808,-0.334 0.196,0.002 0.341,-0.049 0.437,-0.156 0.111,-0.121 0.149,-0.295 0.16,-0.427 -10e-4,-0.002 -10e-4,-0.005 -0.003,-0.005 -0.436,-1.19 -0.311,-2.67 -0.311,-2.67 l 1.057,-0.042 c 0.022,0.539 0.099,1.482 0.372,2.23 C -0.686,-0.944 -0.027,-0.038 0,0" />
    </g>
    <g
       transform="matrix(1.2070815,0,0,-1.2070815,-33.051638,525.22515)"
       id="g20349">
      <path
         inkscape:connector-curvature="0"
         id="path20351"
         style="fill:#076b00;fill-opacity:1;fill-rule:nonzero;stroke:none"
         d="m 0,0 c -0.368,0 -0.669,-0.299 -0.669,-0.669 0,-0.058 0.009,-0.112 0.023,-0.165 C -0.829,-1 -0.988,-1.262 -0.982,-1.645 -0.979,-1.842 -1.03,-1.984 -1.137,-2.081 -1.222,-2.156 -1.328,-2.196 -1.433,-2.222 -2.22,-1.119 -3.189,-0.446 -3.189,-0.446 L -3.947,-1.26 c 0.573,-0.521 1.159,-1.175 1.728,-1.99 0.394,-0.563 0.799,-1.29 1.136,-2.015 l 1.024,0.487 c 0,0 -0.467,1.155 -1.126,2.191 0.115,0.04 0.23,0.103 0.332,0.192 0.2,0.181 0.298,0.437 0.292,0.758 -0.001,0.208 0.067,0.349 0.149,0.442 0.114,-0.087 0.257,-0.143 0.412,-0.143 0.371,0 0.67,0.3 0.67,0.669 C 0.67,-0.299 0.371,0 0,0" />
    </g>
    <g
       transform="matrix(1.2070815,0,0,-1.2070815,-36.259088,536.33284)"
       id="g20353">
      <path
         inkscape:connector-curvature="0"
         id="path20355"
         style="fill:#076b00;fill-opacity:1;fill-rule:nonzero;stroke:none"
         d="m 0,0 c -1.409,-0.687 -3.728,-1.594 -6.781,-2.02 -1.198,-0.166 -2.36,-0.227 -3.429,-0.227 -1.39,0 -2.619,0.103 -3.562,0.223 -1.076,0.135 -1.917,0.301 -2.432,0.418 0.123,-0.392 0.273,-0.781 0.454,-1.159 0.003,-0.009 0.007,-0.02 0.012,-0.027 0.022,-0.044 0.043,-0.09 0.066,-0.134 0.021,-0.044 0.043,-0.087 0.065,-0.127 0.006,-0.011 0.011,-0.023 0.017,-0.033 0.302,-0.57 0.666,-1.095 1.08,-1.549 1.44,-1.575 2.907,-1.824 2.921,-1.826 l 0.023,-0.003 0.022,-0.008 c 0.013,-0.005 1.314,-0.424 3.291,-0.424 1.945,0 3.855,0.392 5.674,1.167 1.347,0.689 2.622,1.736 3.254,2.669 0.488,0.723 0.841,1.494 1.05,2.294 C 1.836,-0.34 1.924,0.342 1.872,1.06 1.476,0.793 0.849,0.413 0,0" />
    </g>
    <g
       transform="matrix(1.2070815,0,0,-1.2070815,-49.693188,528.33013)"
       id="g20357">
      <path
         inkscape:connector-curvature="0"
         id="path20359"
         style="fill:#076b00;fill-opacity:1;fill-rule:nonzero;stroke:none"
         d="m 0,0 c 1.557,0 2.817,-1.262 2.817,-2.817 0,-1.556 -1.26,-2.815 -2.817,-2.815 -1.555,0 -2.816,1.259 -2.816,2.815 C -2.816,-1.262 -1.555,0 0,0 m 8.242,-0.069 c 0.961,0 1.743,-0.781 1.743,-1.743 0,-0.962 -0.782,-1.745 -1.743,-1.745 -0.962,0 -1.742,0.783 -1.742,1.745 0,0.962 0.78,1.743 1.742,1.743 m -12.27,-0.667 c -0.041,-0.06 -0.652,-0.925 -1.135,-2.253 -0.362,-0.995 -0.346,-2.444 -0.346,-2.46 l 0,-0.003 c 0,-0.34 0.019,-0.677 0.057,-1.011 0,-0.008 0,-0.012 0.002,-0.017 0.004,-0.043 0.011,-0.084 0.015,-0.127 0.03,-0.232 0.069,-0.466 0.119,-0.702 0.7,-0.178 4.878,-1.153 9.548,-0.502 2.927,0.407 5.149,1.272 6.499,1.926 1.121,0.544 1.842,1.036 2.12,1.239 C 12.574,-3.618 11.809,-2.006 11.108,-1 9.103,1.865 6.941,2.601 5.831,2.783 5.407,2.853 5.068,2.893 4.587,2.893 4.14,2.893 3.585,2.857 2.844,2.778 2.101,2.701 1.272,2.506 0.312,2.183 -1.036,1.732 -2.255,1.023 -3.215,0.135 l -0.033,-0.03 c -0.142,-0.131 -0.439,-0.407 -0.78,-0.841" />
    </g>
  </g>
</svg>
