<?xml version="1.0" encoding="UTF-8" standalone="no"?>
<!-- Created with Inkscape (http://www.inkscape.org/) -->

<svg
   xmlns:dc="http://purl.org/dc/elements/1.1/"
   xmlns:cc="http://creativecommons.org/ns#"
   xmlns:rdf="http://www.w3.org/1999/02/22-rdf-syntax-ns#"
   xmlns:svg="http://www.w3.org/2000/svg"
   xmlns="http://www.w3.org/2000/svg"
   xmlns:sodipodi="http://sodipodi.sourceforge.net/DTD/sodipodi-0.dtd"
   xmlns:inkscape="http://www.inkscape.org/namespaces/inkscape"
   width="5.989069mm"
   height="11.332641mm"
   viewBox="0 0 21.221111 40.155026"
   id="svg6446"
   version="1.1"
   inkscape:version="0.91 r13725"
   sodipodi:docname="piz_ing_tomato.svg">
  <defs
     id="defs6448" />
  <sodipodi:namedview
     id="base"
     pagecolor="#ffffff"
     bordercolor="#666666"
     borderopacity="1.0"
     inkscape:pageopacity="0.0"
     inkscape:pageshadow="2"
     inkscape:zoom="0.35"
     inkscape:cx="1387.0391"
     inkscape:cy="-319.92249"
     inkscape:document-units="px"
     inkscape:current-layer="layer1"
     showgrid="false"
     fit-margin-top="0"
     fit-margin-left="0"
     fit-margin-right="0"
     fit-margin-bottom="0"
     inkscape:window-width="1920"
     inkscape:window-height="1017"
     inkscape:window-x="-8"
     inkscape:window-y="-8"
     inkscape:window-maximized="1" />
  <metadata
     id="metadata6451">
    <rdf:RDF>
      <cc:Work
         rdf:about="">
        <dc:format>image/svg+xml</dc:format>
        <dc:type
           rdf:resource="http://purl.org/dc/dcmitype/StillImage" />
        <dc:title></dc:title>
      </cc:Work>
    </rdf:RDF>
  </metadata>
  <g
     inkscape:label="Layer 1"
     inkscape:groupmode="layer"
     id="layer1"
     transform="translate(1433.4677,-172.28469)">
    <g
       id="g31895"
       transform="matrix(1.0569249,0,0,1.0569249,-1333.0949,-1027.959)">
      <g
         transform="matrix(0.92169496,0,0,-0.92169496,-77.021444,1173.5921)"
         id="g15917">
        <path
           inkscape:connector-curvature="0"
           id="path15919"
           style="fill:#ff2800;fill-opacity:1;fill-rule:nonzero;stroke:none"
           d="M 0,0 2.314,41.187 C -9.06,41.826 -18.798,33.124 -19.437,21.75 -20.075,10.377 -11.373,0.639 0,0" />
      </g>
      <g
         transform="matrix(0.92169496,0,0,-0.92169496,-76.920891,1171.8019)"
         id="g15921">
        <path
           inkscape:connector-curvature="0"
           id="path15923"
           style="fill:#ff624b;fill-opacity:1;fill-rule:nonzero;stroke:none"
           d="M 0,0 2.095,37.302 C -8.205,37.881 -17.025,29.999 -17.603,19.699 -18.182,9.398 -10.301,0.579 0,0" />
      </g>
      <g
         transform="matrix(0.92169496,0,0,-0.92169496,-82.368389,1149.8291)"
         id="g15925">
        <path
           inkscape:connector-curvature="0"
           id="path15927"
           style="fill:#ff2800;fill-opacity:1;fill-rule:nonzero;stroke:none"
           d="m 0,0 c -0.672,-1.277 -1.211,-3.125 -1.319,-4.724 -0.084,-1.233 0.285,-3.525 0.983,-4.76 2.19,-3.872 4.015,0.296 4.757,-4.543 0.536,-3.503 -4.697,-4.638 -8.499,-1.839 -1.345,0.99 -4.591,3.926 -4.157,11.651 C -7.801,3.51 -4.26,5.825 -2.813,6.658 1.279,9.013 6.352,7.299 5.426,3.879 4.148,-0.847 2.029,3.856 0,0" />
      </g>
      <g
         transform="matrix(0.92169496,0,0,-0.92169496,-82.294281,1161.949)"
         id="g15929">
        <path
           inkscape:connector-curvature="0"
           id="path15931"
           style="fill:#ffd208;fill-opacity:1;fill-rule:nonzero;stroke:none"
           d="M 0,0 C 0.472,0.394 1.04,0.49 1.269,0.215 1.498,-0.06 1.302,-0.601 0.83,-0.995 0.358,-1.388 -0.21,-1.485 -0.439,-1.21 -0.669,-0.935 -0.472,-0.394 0,0" />
      </g>
      <g
         transform="matrix(0.92169496,0,0,-0.92169496,-83.782172,1160.0256)"
         id="g15933">
        <path
           inkscape:connector-curvature="0"
           id="path15935"
           style="fill:#ffd208;fill-opacity:1;fill-rule:nonzero;stroke:none"
           d="M 0,0 C 0.551,0.273 1.126,0.234 1.284,-0.087 1.443,-0.407 1.126,-0.888 0.575,-1.161 0.024,-1.434 -0.551,-1.395 -0.709,-1.074 -0.868,-0.754 -0.551,-0.273 0,0" />
      </g>
      <g
         transform="matrix(0.92169496,0,0,-0.92169496,-85.11826,1157.3915)"
         id="g15937">
        <path
           inkscape:connector-curvature="0"
           id="path15939"
           style="fill:#ffd208;fill-opacity:1;fill-rule:nonzero;stroke:none"
           d="M 0,0 C 0.606,0.101 1.145,-0.104 1.203,-0.457 1.262,-0.81 0.818,-1.177 0.212,-1.278 -0.394,-1.379 -0.933,-1.174 -0.992,-0.821 -1.05,-0.468 -0.606,-0.101 0,0" />
      </g>
      <g
         transform="matrix(0.92169496,0,0,-0.92169496,-81.357379,1146.1208)"
         id="g15941">
        <path
           inkscape:connector-curvature="0"
           id="path15943"
           style="fill:#ffd208;fill-opacity:1;fill-rule:nonzero;stroke:none"
           d="M 0,0 C 0.425,-0.444 0.979,-0.603 1.237,-0.356 1.496,-0.109 1.361,0.452 0.936,0.896 0.511,1.34 -0.043,1.499 -0.301,1.252 -0.56,1.004 -0.425,0.444 0,0" />
      </g>
      <g
         transform="matrix(0.92169496,0,0,-0.92169496,-83.051366,1147.8654)"
         id="g15945">
        <path
           inkscape:connector-curvature="0"
           id="path15947"
           style="fill:#ffd208;fill-opacity:1;fill-rule:nonzero;stroke:none"
           d="M 0,0 C 0.517,-0.333 1.092,-0.358 1.286,-0.058 1.48,0.243 1.218,0.757 0.701,1.089 0.185,1.422 -0.391,1.448 -0.585,1.147 -0.778,0.846 -0.517,0.333 0,0" />
      </g>
      <g
         transform="matrix(0.92169496,0,0,-0.92169496,-84.674099,1150.3334)"
         id="g15949">
        <path
           inkscape:connector-curvature="0"
           id="path15951"
           style="fill:#ffd208;fill-opacity:1;fill-rule:nonzero;stroke:none"
           d="M 0,0 C 0.591,-0.168 1.149,-0.025 1.247,0.319 1.345,0.663 0.945,1.078 0.354,1.246 -0.237,1.414 -0.796,1.271 -0.893,0.927 -0.991,0.583 -0.591,0.168 0,0" />
      </g>
      <g
         transform="matrix(0.92169496,0,0,-0.92169496,-85.41477,1154.6938)"
         id="g15953">
        <path
           inkscape:connector-curvature="0"
           id="path15955"
           style="fill:#ffd208;fill-opacity:1;fill-rule:nonzero;stroke:none"
           d="m 0,0 c 0.608,-0.088 1.06,-0.446 1.009,-0.8 -0.051,-0.354 -0.586,-0.57 -1.194,-0.482 -0.608,0.087 -1.06,0.446 -1.008,0.8 C -1.142,-0.128 -0.608,0.088 0,0" />
      </g>
      <g
         transform="matrix(0.92169496,0,0,-0.92169496,-85.162966,1152.0399)"
         id="g15957">
        <path
           inkscape:connector-curvature="0"
           id="path15959"
           style="fill:#ffd208;fill-opacity:1;fill-rule:nonzero;stroke:none"
           d="m 0,0 c 0.584,-0.192 0.966,-0.623 0.854,-0.963 -0.111,-0.34 -0.675,-0.46 -1.259,-0.268 -0.583,0.192 -0.966,0.623 -0.854,0.963 C -1.147,0.072 -0.584,0.192 0,0" />
      </g>
    </g>
  </g>
</svg>
