<?xml version="1.0" encoding="UTF-8" standalone="no"?>
<!-- Created with Inkscape (http://www.inkscape.org/) -->

<svg
   xmlns:dc="http://purl.org/dc/elements/1.1/"
   xmlns:cc="http://creativecommons.org/ns#"
   xmlns:rdf="http://www.w3.org/1999/02/22-rdf-syntax-ns#"
   xmlns:svg="http://www.w3.org/2000/svg"
   xmlns="http://www.w3.org/2000/svg"
   xmlns:sodipodi="http://sodipodi.sourceforge.net/DTD/sodipodi-0.dtd"
   xmlns:inkscape="http://www.inkscape.org/namespaces/inkscape"
   width="14.902699mm"
   height="15.474595mm"
   viewBox="0 0 52.804841 54.831242"
   id="svg8249"
   version="1.1"
   inkscape:version="0.91 r13725"
   sodipodi:docname="piz_ing_pineapple.svg">
  <defs
     id="defs8251" />
  <sodipodi:namedview
     id="base"
     pagecolor="#ffffff"
     bordercolor="#666666"
     borderopacity="1.0"
     inkscape:pageopacity="0.0"
     inkscape:pageshadow="2"
     inkscape:zoom="0.35"
     inkscape:cx="885.68813"
     inkscape:cy="-204.01295"
     inkscape:document-units="px"
     inkscape:current-layer="layer1"
     showgrid="false"
     fit-margin-top="0"
     fit-margin-left="0"
     fit-margin-right="0"
     fit-margin-bottom="0"
     inkscape:window-width="1920"
     inkscape:window-height="1017"
     inkscape:window-x="-8"
     inkscape:window-y="-8"
     inkscape:window-maximized="1" />
  <metadata
     id="metadata8254">
    <rdf:RDF>
      <cc:Work
         rdf:about="">
        <dc:format>image/svg+xml</dc:format>
        <dc:type
           rdf:resource="http://purl.org/dc/dcmitype/StillImage" />
        <dc:title></dc:title>
      </cc:Work>
    </rdf:RDF>
  </metadata>
  <g
     inkscape:label="Layer 1"
     inkscape:groupmode="layer"
     id="layer1"
     transform="translate(932.1167,-273.51801)">
    <g
       id="g31657"
       transform="matrix(0.45469477,0,0,0.45469477,-853.22069,149.31033)">
      <g
         transform="matrix(1.25,0,0,-1.25,-115.44798,369.23753)"
         id="g16697">
        <path
           inkscape:connector-curvature="0"
           id="path16699"
           style="fill:#d4aa01;fill-opacity:1;fill-rule:nonzero;stroke:none"
           d="m 0,0 c -14.822,0 -26.838,12.016 -26.838,26.838 0,14.822 12.016,26.838 26.838,26.838 14.822,0 26.838,-12.016 26.838,-26.838 C 26.838,12.016 14.822,0 0,0 m 0,73.291 c -25.655,0 -46.453,-20.797 -46.453,-46.453 0,-25.655 20.798,-46.453 46.453,-46.453 25.655,0 46.453,20.798 46.453,46.453 0,25.656 -20.798,46.453 -46.453,46.453" />
      </g>
      <g
         transform="matrix(1.25,0,0,-1.25,-115.44798,364.78091)"
         id="g16701">
        <path
           inkscape:connector-curvature="0"
           id="path16703"
           style="fill:#fac901;fill-opacity:1;fill-rule:nonzero;stroke:none"
           d="m 0,0 c -14.822,0 -26.838,12.016 -26.838,26.838 0,14.822 12.016,26.838 26.838,26.838 14.822,0 26.838,-12.016 26.838,-26.838 C 26.838,12.016 14.822,0 0,0 m 0,73.291 c -25.655,0 -46.453,-20.797 -46.453,-46.453 0,-25.655 20.798,-46.453 46.453,-46.453 25.655,0 46.453,20.798 46.453,46.453 0,25.656 -20.798,46.453 -46.453,46.453" />
      </g>
      <g
         transform="matrix(1.25,0,0,-1.25,-115.44798,385.14116)"
         id="g16705">
        <path
           inkscape:connector-curvature="0"
           id="path16707"
           style="fill:#fad952;fill-opacity:1;fill-rule:nonzero;stroke:none"
           d="m 0,0 c -23.818,0 -43.126,19.308 -43.126,43.126 0,23.818 19.308,43.127 43.126,43.127 23.818,0 43.126,-19.309 43.126,-43.127 C 43.126,19.308 23.818,0 0,0 m 0,89.579 c -25.655,0 -46.453,-20.797 -46.453,-46.453 0,-25.655 20.798,-46.453 46.453,-46.453 25.655,0 46.453,20.798 46.453,46.453 0,25.656 -20.798,46.453 -46.453,46.453" />
      </g>
      <g
         transform="matrix(1.25,0,0,-1.25,-117.69723,275.15453)"
         id="g16709">
        <path
           inkscape:connector-curvature="0"
           id="path16711"
           style="fill:#fad952;fill-opacity:1;fill-rule:nonzero;stroke:none"
           d="M 0,0 1.614,-16.669 2.332,0 0,0 Z" />
      </g>
      <g
         transform="matrix(1.25,0,0,-1.25,-97.967613,299.09916)"
         id="g16713">
        <path
           inkscape:connector-curvature="0"
           id="path16715"
           style="fill:#fad952;fill-opacity:1;fill-rule:nonzero;stroke:none"
           d="M 0,0 8.789,11.992 11.479,10.073 0,0 Z" />
      </g>
      <g
         transform="matrix(1.25,0,0,-1.25,-112.55623,369.36054)"
         id="g16717">
        <path
           inkscape:connector-curvature="0"
           id="path16719"
           style="fill:#fad952;fill-opacity:1;fill-rule:nonzero;stroke:none"
           d="M 0,0 1.006,-14.834 -2.288,-15.1 0,0 Z" />
      </g>
      <g
         transform="matrix(1.25,0,0,-1.25,-81.761343,314.42828)"
         id="g16721">
        <path
           inkscape:connector-curvature="0"
           id="path16723"
           style="fill:#fad952;fill-opacity:1;fill-rule:nonzero;stroke:none"
           d="M 0,0 12.858,7.465 14.554,4.628 0,0 Z" />
      </g>
      <g
         transform="matrix(1.25,0,0,-1.25,-89.447843,306.52891)"
         id="g16725">
        <path
           inkscape:connector-curvature="0"
           id="path16727"
           style="fill:#fad952;fill-opacity:1;fill-rule:nonzero;stroke:none"
           d="M 0,0 12.038,10.069 13.99,7.174 0,0 Z" />
      </g>
      <g
         transform="matrix(1.25,0,0,-1.25,-80.138243,326.96066)"
         id="g16729">
        <path
           inkscape:connector-curvature="0"
           id="path16731"
           style="fill:#fad952;fill-opacity:1;fill-rule:nonzero;stroke:none"
           d="M 0,0 15.434,3.943 16.201,0.42 0,0 Z" />
      </g>
      <g
         transform="matrix(1.25,0,0,-1.25,-80.294843,338.18441)"
         id="g16733">
        <path
           inkscape:connector-curvature="0"
           id="path16735"
           style="fill:#fad952;fill-opacity:1;fill-rule:nonzero;stroke:none"
           d="M 0,0 15.841,-1.681 15.332,-5.25 0,0 Z" />
      </g>
      <g
         transform="matrix(1.25,0,0,-1.25,-84.104943,349.14541)"
         id="g16737">
        <path
           inkscape:connector-curvature="0"
           id="path16739"
           style="fill:#fad952;fill-opacity:1;fill-rule:nonzero;stroke:none"
           d="M 0,0 14.212,-7.196 12.469,-10.352 0,0 Z" />
      </g>
      <g
         transform="matrix(1.25,0,0,-1.25,-91.291343,358.66116)"
         id="g16741">
        <path
           inkscape:connector-curvature="0"
           id="path16743"
           style="fill:#fad952;fill-opacity:1;fill-rule:nonzero;stroke:none"
           d="M 0,0 12.361,-10.048 9.988,-12.763 0,0 Z" />
      </g>
      <g
         transform="matrix(1.25,0,0,-1.25,-103.32136,365.90966)"
         id="g16745">
        <path
           inkscape:connector-curvature="0"
           id="path16747"
           style="fill:#fad952;fill-opacity:1;fill-rule:nonzero;stroke:none"
           d="M 0,0 10.63,-11.865 7.86,-14.173 0,0 Z" />
      </g>
      <g
         transform="matrix(1.25,0,0,-1.25,-104.31686,276.89166)"
         id="g16749">
        <path
           inkscape:connector-curvature="0"
           id="path16751"
           style="fill:#fad952;fill-opacity:1;fill-rule:nonzero;stroke:none"
           d="M 0,0 -2.212,-15.859 2.843,-0.531 0,0 Z" />
      </g>
      <g
         transform="matrix(1.25,0,0,-1.25,-132.45048,299.09916)"
         id="g16753">
        <path
           inkscape:connector-curvature="0"
           id="path16755"
           style="fill:#fad952;fill-opacity:1;fill-rule:nonzero;stroke:none"
           d="M 0,0 -8.789,11.992 -11.479,10.073 0,0 Z" />
      </g>
      <g
         transform="matrix(1.25,0,0,-1.25,-148.65673,314.42828)"
         id="g16757">
        <path
           inkscape:connector-curvature="0"
           id="path16759"
           style="fill:#fad952;fill-opacity:1;fill-rule:nonzero;stroke:none"
           d="M 0,0 -12.858,7.465 -14.554,4.628 0,0 Z" />
      </g>
      <g
         transform="matrix(1.25,0,0,-1.25,-140.97024,306.52891)"
         id="g16761">
        <path
           inkscape:connector-curvature="0"
           id="path16763"
           style="fill:#fad952;fill-opacity:1;fill-rule:nonzero;stroke:none"
           d="M 0,0 -12.038,10.069 -13.99,7.174 0,0 Z" />
      </g>
      <g
         transform="matrix(1.25,0,0,-1.25,-150.27986,326.96066)"
         id="g16765">
        <path
           inkscape:connector-curvature="0"
           id="path16767"
           style="fill:#fad952;fill-opacity:1;fill-rule:nonzero;stroke:none"
           d="M 0,0 -15.434,3.943 -16.201,0.42 0,0 Z" />
      </g>
      <g
         transform="matrix(1.25,0,0,-1.25,-150.12324,338.18441)"
         id="g16769">
        <path
           inkscape:connector-curvature="0"
           id="path16771"
           style="fill:#fad952;fill-opacity:1;fill-rule:nonzero;stroke:none"
           d="M 0,0 -15.841,-1.681 -15.332,-5.25 0,0 Z" />
      </g>
      <g
         transform="matrix(1.25,0,0,-1.25,-146.31311,349.14541)"
         id="g16773">
        <path
           inkscape:connector-curvature="0"
           id="path16775"
           style="fill:#fad952;fill-opacity:1;fill-rule:nonzero;stroke:none"
           d="m 0,0 -14.212,-7.196 1.743,-3.156 L 0,0 Z" />
      </g>
      <g
         transform="matrix(1.25,0,0,-1.25,-139.12673,358.66116)"
         id="g16777">
        <path
           inkscape:connector-curvature="0"
           id="path16779"
           style="fill:#fad952;fill-opacity:1;fill-rule:nonzero;stroke:none"
           d="M 0,0 -12.361,-10.048 -9.988,-12.763 0,0 Z" />
      </g>
      <g
         transform="matrix(1.25,0,0,-1.25,-127.09674,365.90966)"
         id="g16781">
        <path
           inkscape:connector-curvature="0"
           id="path16783"
           style="fill:#fad952;fill-opacity:1;fill-rule:nonzero;stroke:none"
           d="M 0,0 -10.629,-11.865 -7.86,-14.173 0,0 Z" />
      </g>
      <g
         transform="matrix(1.25,0,0,-1.25,-128.56748,277.34016)"
         id="g16785">
        <path
           inkscape:connector-curvature="0"
           id="path16787"
           style="fill:#fad952;fill-opacity:1;fill-rule:nonzero;stroke:none"
           d="M 0,0 2.212,-15.859 -2.843,-0.53 0,0 Z" />
      </g>
    </g>
  </g>
</svg>
