<?xml version="1.0" encoding="UTF-8" standalone="no"?>
<!-- Created with Inkscape (http://www.inkscape.org/) -->

<svg
   xmlns:dc="http://purl.org/dc/elements/1.1/"
   xmlns:cc="http://creativecommons.org/ns#"
   xmlns:rdf="http://www.w3.org/1999/02/22-rdf-syntax-ns#"
   xmlns:svg="http://www.w3.org/2000/svg"
   xmlns="http://www.w3.org/2000/svg"
   xmlns:sodipodi="http://sodipodi.sourceforge.net/DTD/sodipodi-0.dtd"
   xmlns:inkscape="http://www.inkscape.org/namespaces/inkscape"
   width="8.8675261mm"
   height="13.565168mm"
   viewBox="0 0 31.420368 48.065557"
   id="svg7710"
   version="1.1"
   inkscape:version="0.91 r13725"
   sodipodi:docname="piz_ing_basil.svg">
  <defs
     id="defs7712" />
  <sodipodi:namedview
     id="base"
     pagecolor="#ffffff"
     bordercolor="#666666"
     borderopacity="1.0"
     inkscape:pageopacity="0.0"
     inkscape:pageshadow="2"
     inkscape:zoom="0.35"
     inkscape:cx="1049.2816"
     inkscape:cy="978.31849"
     inkscape:document-units="px"
     inkscape:current-layer="layer1"
     showgrid="false"
     fit-margin-top="0"
     fit-margin-left="0"
     fit-margin-right="0"
     fit-margin-bottom="0"
     inkscape:window-width="1920"
     inkscape:window-height="1017"
     inkscape:window-x="-8"
     inkscape:window-y="-8"
     inkscape:window-maximized="1" />
  <metadata
     id="metadata7715">
    <rdf:RDF>
      <cc:Work
         rdf:about="">
        <dc:format>image/svg+xml</dc:format>
        <dc:type
           rdf:resource="http://purl.org/dc/dcmitype/StillImage" />
        <dc:title></dc:title>
      </cc:Work>
    </rdf:RDF>
  </metadata>
  <g
     inkscape:label="Layer 1"
     inkscape:groupmode="layer"
     id="layer1"
     transform="translate(1095.7102,-1462.6151)">
    <g
       id="g31573"
       transform="matrix(0.45469477,0,0,0.45469477,-789.37213,1147.7211)">
      <g
         transform="matrix(1.25,0,0,-1.25,-638.84728,709.84063)"
         id="g16457">
        <path
           inkscape:connector-curvature="0"
           id="path16459"
           style="fill:#8aac37;fill-opacity:1;fill-rule:nonzero;stroke:none"
           d="m 0,0 c 6.707,-11.628 -0.361,-28.267 -0.361,-28.267 0,0 -17.942,2.213 -24.649,13.841 -6.707,11.628 0.361,28.267 0.361,28.267 0,0 17.942,-2.213 24.649,-13.841" />
      </g>
      <g
         transform="matrix(1.25,0,0,-1.25,-638.11453,747.22625)"
         id="g16461">
        <path
           inkscape:connector-curvature="0"
           id="path16463"
           style="fill:#9abf3c;fill-opacity:1;fill-rule:nonzero;stroke:none"
           d="m 0,0 c -0.345,-0.199 -0.765,-0.118 -0.938,0.181 l -22.754,39.448 c -0.172,0.3 -0.032,0.703 0.313,0.903 0.345,0.199 0.765,0.118 0.938,-0.182 L 0.313,0.902 C 0.486,0.603 0.345,0.199 0,0" />
      </g>
      <g
         transform="matrix(1.25,0,0,-1.25,-645.83665,733.84913)"
         id="g16465">
        <path
           inkscape:connector-curvature="0"
           id="path16467"
           style="fill:#9abf3c;fill-opacity:1;fill-rule:nonzero;stroke:none"
           d="M 0,0 C -0.166,-0.096 -0.365,-0.135 -0.554,-0.092 -0.917,-0.01 -1.102,0.34 -0.969,0.689 L 4.036,13.83 c 0.133,0.35 0.535,0.568 0.897,0.486 0.363,-0.081 0.548,-0.431 0.415,-0.781 L 0.344,0.394 C 0.28,0.226 0.154,0.089 0,0" />
      </g>
      <g
         transform="matrix(1.25,0,0,-1.25,-649.41002,728.82588)"
         id="g16469">
        <path
           inkscape:connector-curvature="0"
           id="path16471"
           style="fill:#9abf3c;fill-opacity:1;fill-rule:nonzero;stroke:none"
           d="m 0,0 c -0.172,-0.099 -0.378,-0.137 -0.57,-0.088 l -13.176,3.305 c -0.359,0.09 -0.535,0.445 -0.393,0.793 0.142,0.348 0.548,0.557 0.907,0.467 L -0.055,1.172 C 0.303,1.082 0.479,0.726 0.337,0.378 0.271,0.217 0.148,0.086 0,0" />
      </g>
      <g
         transform="matrix(1.25,0,0,-1.25,-652.12052,722.95576)"
         id="g16473">
        <path
           inkscape:connector-curvature="0"
           id="path16475"
           style="fill:#9abf3c;fill-opacity:1;fill-rule:nonzero;stroke:none"
           d="m 0,0 c -0.143,-0.083 -0.312,-0.123 -0.479,-0.104 -0.375,0.042 -0.604,0.366 -0.512,0.723 l 3.313,12.816 c 0.092,0.356 0.471,0.612 0.846,0.569 0.375,-0.042 0.604,-0.365 0.512,-0.723 L 0.367,0.465 C 0.316,0.268 0.177,0.102 0,0" />
      </g>
      <g
         transform="matrix(1.25,0,0,-1.25,-657.13903,715.06738)"
         id="g16477">
        <path
           inkscape:connector-curvature="0"
           id="path16479"
           style="fill:#9abf3c;fill-opacity:1;fill-rule:nonzero;stroke:none"
           d="M 0,0 C -0.193,-0.111 -0.426,-0.144 -0.633,-0.07 L -11.06,3.681 c -0.344,0.124 -0.479,0.498 -0.303,0.836 0.177,0.338 0.598,0.51 0.942,0.387 L 0.006,1.153 C 0.35,1.029 0.485,0.656 0.309,0.318 0.238,0.183 0.128,0.074 0,0" />
      </g>
      <g
         transform="matrix(1.25,0,0,-1.25,-642.68653,739.5485)"
         id="g16481">
        <path
           inkscape:connector-curvature="0"
           id="path16483"
           style="fill:#9abf3c;fill-opacity:1;fill-rule:nonzero;stroke:none"
           d="m 0,0 c -0.193,-0.111 -0.426,-0.144 -0.633,-0.07 l -10.428,3.751 c -0.343,0.124 -0.478,0.498 -0.302,0.835 0.177,0.339 0.598,0.511 0.941,0.388 L 0.006,1.153 C 0.349,1.029 0.485,0.656 0.309,0.318 0.238,0.183 0.128,0.074 0,0" />
      </g>
      <g
         transform="matrix(1.25,0,0,-1.25,-660.57452,708.15663)"
         id="g16485">
        <path
           inkscape:connector-curvature="0"
           id="path16487"
           style="fill:#9abf3c;fill-opacity:1;fill-rule:nonzero;stroke:none"
           d="m 0,0 c -0.133,-0.077 -0.289,-0.118 -0.447,-0.107 -0.378,0.025 -0.625,0.336 -0.551,0.694 l 1.339,6.47 C 0.415,7.416 0.782,7.686 1.162,7.661 1.54,7.636 1.787,7.325 1.713,6.967 L 0.374,0.497 C 0.33,0.287 0.187,0.108 0,0" />
      </g>
      <g
         transform="matrix(1.25,0,0,-1.25,-639.4954,780.94763)"
         id="g16489">
        <path
           inkscape:connector-curvature="0"
           id="path16491"
           style="fill:#8aac37;fill-opacity:1;fill-rule:nonzero;stroke:none"
           d="m 0,0 c -6.707,11.628 0.361,28.267 0.361,28.267 0,0 17.942,-2.213 24.649,-13.841 6.707,-11.628 -0.361,-28.267 -0.361,-28.267 0,0 -17.942,2.213 -24.649,13.841" />
      </g>
      <g
         transform="matrix(1.25,0,0,-1.25,-611.00415,794.2265)"
         id="g16493">
        <path
           inkscape:connector-curvature="0"
           id="path16495"
           style="fill:#9abf3c;fill-opacity:1;fill-rule:nonzero;stroke:none"
           d="m 0,0 c -0.345,-0.199 -0.765,-0.118 -0.938,0.181 l -22.754,39.448 c -0.173,0.3 -0.032,0.703 0.313,0.903 0.345,0.199 0.765,0.118 0.938,-0.182 L 0.313,0.902 C 0.485,0.603 0.345,0.199 0,0" />
      </g>
      <g
         transform="matrix(1.25,0,0,-1.25,-637.98003,774.71963)"
         id="g16497">
        <path
           inkscape:connector-curvature="0"
           id="path16499"
           style="fill:#9abf3c;fill-opacity:1;fill-rule:nonzero;stroke:none"
           d="M 0,0 C -0.166,-0.096 -0.365,-0.135 -0.554,-0.092 -0.916,-0.01 -1.102,0.34 -0.969,0.69 l 5.005,13.14 c 0.133,0.35 0.534,0.569 0.897,0.486 0.363,-0.081 0.548,-0.431 0.415,-0.781 L 0.344,0.394 C 0.28,0.226 0.154,0.089 0,0" />
      </g>
      <g
         transform="matrix(1.25,0,0,-1.25,-611.68053,767.44863)"
         id="g16501">
        <path
           inkscape:connector-curvature="0"
           id="path16503"
           style="fill:#9abf3c;fill-opacity:1;fill-rule:nonzero;stroke:none"
           d="m 0,0 c -0.172,-0.099 -0.378,-0.137 -0.57,-0.089 l -13.176,3.306 c -0.359,0.09 -0.535,0.445 -0.393,0.793 0.143,0.349 0.548,0.557 0.908,0.467 L -0.055,1.172 C 0.303,1.082 0.479,0.726 0.337,0.378 0.271,0.217 0.148,0.085 0,0" />
      </g>
      <g
         transform="matrix(1.25,0,0,-1.25,-629.58315,785.20775)"
         id="g16505">
        <path
           inkscape:connector-curvature="0"
           id="path16507"
           style="fill:#9abf3c;fill-opacity:1;fill-rule:nonzero;stroke:none"
           d="m 0,0 c -0.143,-0.083 -0.312,-0.123 -0.479,-0.104 -0.375,0.042 -0.604,0.366 -0.512,0.723 l 3.313,12.816 c 0.092,0.357 0.472,0.612 0.846,0.57 0.375,-0.043 0.604,-0.366 0.512,-0.723 L 0.367,0.465 C 0.316,0.268 0.177,0.102 0,0" />
      </g>
      <g
         transform="matrix(1.25,0,0,-1.25,-607.3859,781.76363)"
         id="g16509">
        <path
           inkscape:connector-curvature="0"
           id="path16511"
           style="fill:#9abf3c;fill-opacity:1;fill-rule:nonzero;stroke:none"
           d="m 0,0 c -0.193,-0.111 -0.427,-0.144 -0.633,-0.07 l -10.428,3.751 c -0.343,0.124 -0.478,0.498 -0.302,0.835 0.177,0.339 0.598,0.51 0.941,0.388 L 0.006,1.153 C 0.349,1.029 0.485,0.656 0.309,0.318 0.238,0.183 0.128,0.074 0,0" />
      </g>
      <g
         transform="matrix(1.25,0,0,-1.25,-621.83853,757.28263)"
         id="g16513">
        <path
           inkscape:connector-curvature="0"
           id="path16515"
           style="fill:#9abf3c;fill-opacity:1;fill-rule:nonzero;stroke:none"
           d="M 0,0 C -0.193,-0.111 -0.427,-0.144 -0.633,-0.07 L -11.06,3.681 c -0.344,0.124 -0.479,0.498 -0.303,0.836 0.177,0.338 0.598,0.51 0.942,0.387 L 0.006,1.153 C 0.35,1.029 0.485,0.656 0.309,0.318 0.238,0.182 0.128,0.074 0,0" />
      </g>
      <g
         transform="matrix(1.25,0,0,-1.25,-618.66165,792.07388)"
         id="g16517">
        <path
           inkscape:connector-curvature="0"
           id="path16519"
           style="fill:#9abf3c;fill-opacity:1;fill-rule:nonzero;stroke:none"
           d="m 0,0 c -0.133,-0.077 -0.289,-0.118 -0.447,-0.107 -0.379,0.025 -0.625,0.336 -0.551,0.694 l 1.339,6.47 c 0.074,0.36 0.441,0.63 0.82,0.604 C 1.54,7.636 1.787,7.325 1.713,6.967 L 0.374,0.497 C 0.33,0.287 0.187,0.108 0,0" />
      </g>
      <g
         transform="matrix(1.25,0,0,-1.25,-660.76452,746.18563)"
         id="g16521">
        <path
           inkscape:connector-curvature="0"
           id="path16523"
           style="fill:#48912c;fill-opacity:1;fill-rule:nonzero;stroke:none"
           d="m 0,0 c 7.188,4.146 16.992,0.611 16.992,0.611 0,0 -1.849,-10.256 -9.037,-14.402 -7.188,-4.146 -16.992,-0.612 -16.992,-0.612 0,0 1.849,10.257 9.037,14.403" />
      </g>
      <g
         transform="matrix(1.25,0,0,-1.25,-638.25578,744.68963)"
         id="g16525">
        <path
           inkscape:connector-curvature="0"
           id="path16527"
           style="fill:#46822e;fill-opacity:1;fill-rule:nonzero;stroke:none"
           d="m 0,0 c 0.11,-0.19 0.049,-0.431 -0.136,-0.538 l -24.385,-14.066 c -0.186,-0.106 -0.424,-0.038 -0.534,0.152 -0.11,0.19 -0.049,0.431 0.136,0.538 L -0.534,0.152 C -0.349,0.258 -0.11,0.191 0,0" />
      </g>
      <g
         transform="matrix(1.25,0,0,-1.25,-646.52527,749.46288)"
         id="g16529">
        <path
           inkscape:connector-curvature="0"
           id="path16531"
           style="fill:#46822e;fill-opacity:1;fill-rule:nonzero;stroke:none"
           d="M 0,0 C 0.053,-0.092 0.07,-0.204 0.039,-0.312 -0.02,-0.52 -0.236,-0.636 -0.443,-0.57 l -7.759,2.463 c -0.207,0.066 -0.327,0.288 -0.267,0.496 0.06,0.208 0.276,0.324 0.482,0.258 l 7.76,-2.463 C -0.128,0.152 -0.049,0.085 0,0" />
      </g>
      <g
         transform="matrix(1.25,0,0,-1.25,-649.65002,751.63788)"
         id="g16533">
        <path
           inkscape:connector-curvature="0"
           id="path16535"
           style="fill:#46822e;fill-opacity:1;fill-rule:nonzero;stroke:none"
           d="m 0,0 c 0.055,-0.095 0.071,-0.211 0.037,-0.321 l -2.369,-7.581 c -0.064,-0.206 -0.283,-0.317 -0.488,-0.246 -0.206,0.071 -0.32,0.295 -0.255,0.502 l 2.369,7.581 c 0.064,0.206 0.283,0.316 0.488,0.246 C -0.123,0.148 -0.047,0.082 0,0" />
      </g>
      <g
         transform="matrix(1.25,0,0,-1.25,-653.25915,753.34725)"
         id="g16537">
        <path
           inkscape:connector-curvature="0"
           id="path16539"
           style="fill:#46822e;fill-opacity:1;fill-rule:nonzero;stroke:none"
           d="m 0,0 c 0.046,-0.079 0.065,-0.174 0.049,-0.269 -0.036,-0.215 -0.238,-0.354 -0.45,-0.312 l -7.613,1.512 c -0.212,0.042 -0.355,0.25 -0.318,0.464 0.036,0.215 0.237,0.354 0.449,0.312 L -0.269,0.195 C -0.152,0.172 -0.056,0.098 0,0" />
      </g>
      <g
         transform="matrix(1.25,0,0,-1.25,-658.1489,756.42613)"
         id="g16541">
        <path
           inkscape:connector-curvature="0"
           id="path16543"
           style="fill:#46822e;fill-opacity:1;fill-rule:nonzero;stroke:none"
           d="m 0,0 c 0.061,-0.106 0.074,-0.238 0.024,-0.357 l -2.558,-6.032 c -0.084,-0.199 -0.313,-0.287 -0.511,-0.196 -0.199,0.09 -0.29,0.324 -0.206,0.523 l 2.558,6.032 C -0.609,0.169 -0.38,0.257 -0.182,0.166 -0.103,0.13 -0.041,0.071 0,0" />
      </g>
      <g
         transform="matrix(1.25,0,0,-1.25,-643.00615,747.50863)"
         id="g16545">
        <path
           inkscape:connector-curvature="0"
           id="path16547"
           style="fill:#46822e;fill-opacity:1;fill-rule:nonzero;stroke:none"
           d="M 0,0 C 0.061,-0.106 0.074,-0.238 0.024,-0.357 L -2.534,-6.39 c -0.084,-0.198 -0.313,-0.286 -0.511,-0.196 -0.198,0.091 -0.29,0.325 -0.206,0.524 l 2.558,6.032 C -0.609,0.169 -0.38,0.257 -0.182,0.166 -0.103,0.13 -0.041,0.071 0,0" />
      </g>
      <g
         transform="matrix(1.25,0,0,-1.25,-662.40502,758.57725)"
         id="g16549">
        <path
           inkscape:connector-curvature="0"
           id="path16551"
           style="fill:#46822e;fill-opacity:1;fill-rule:nonzero;stroke:none"
           d="M 0,0 C 0.042,-0.074 0.063,-0.161 0.052,-0.251 0.025,-0.467 -0.169,-0.616 -0.382,-0.584 l -3.853,0.574 c -0.214,0.032 -0.366,0.232 -0.34,0.449 0.027,0.215 0.221,0.365 0.434,0.333 L -0.288,0.198 C -0.163,0.179 -0.06,0.103 0,0" />
      </g>
      <g
         transform="matrix(1.25,0,0,-1.25,-618.01215,744.50013)"
         id="g16553">
        <path
           inkscape:connector-curvature="0"
           id="path16555"
           style="fill:#48912c;fill-opacity:1;fill-rule:nonzero;stroke:none"
           d="m 0,0 c -7.188,-4.146 -16.992,-0.612 -16.992,-0.612 0,0 1.849,10.257 9.037,14.403 7.188,4.146 16.992,0.612 16.992,0.612 C 9.037,14.403 7.188,4.146 0,0" />
      </g>
      <g
         transform="matrix(1.25,0,0,-1.25,-609.20202,727.931)"
         id="g16557">
        <path
           inkscape:connector-curvature="0"
           id="path16559"
           style="fill:#46822e;fill-opacity:1;fill-rule:nonzero;stroke:none"
           d="m 0,0 c 0.11,-0.19 0.049,-0.431 -0.136,-0.538 l -24.385,-14.066 c -0.185,-0.106 -0.424,-0.039 -0.534,0.152 -0.11,0.19 -0.049,0.431 0.136,0.538 L -0.534,0.152 C -0.349,0.258 -0.11,0.19 0,0" />
      </g>
      <g
         transform="matrix(1.25,0,0,-1.25,-621.71465,743.81913)"
         id="g16561">
        <path
           inkscape:connector-curvature="0"
           id="path16563"
           style="fill:#46822e;fill-opacity:1;fill-rule:nonzero;stroke:none"
           d="M 0,0 C 0.053,-0.092 0.07,-0.204 0.039,-0.312 -0.02,-0.52 -0.236,-0.636 -0.443,-0.57 l -7.759,2.463 c -0.207,0.066 -0.327,0.288 -0.267,0.496 0.06,0.208 0.276,0.324 0.482,0.258 l 7.76,-2.463 C -0.128,0.152 -0.049,0.085 0,0" />
      </g>
      <g
         transform="matrix(1.25,0,0,-1.25,-625.32852,729.08863)"
         id="g16565">
        <path
           inkscape:connector-curvature="0"
           id="path16567"
           style="fill:#46822e;fill-opacity:1;fill-rule:nonzero;stroke:none"
           d="m 0,0 c 0.055,-0.095 0.071,-0.211 0.037,-0.321 l -2.369,-7.581 c -0.065,-0.206 -0.283,-0.317 -0.489,-0.246 -0.205,0.071 -0.319,0.295 -0.254,0.502 l 2.369,7.581 C -0.642,0.141 -0.423,0.251 -0.218,0.18 -0.123,0.148 -0.047,0.082 0,0" />
      </g>
      <g
         transform="matrix(1.25,0,0,-1.25,-615.16352,738.746)"
         id="g16569">
        <path
           inkscape:connector-curvature="0"
           id="path16571"
           style="fill:#46822e;fill-opacity:1;fill-rule:nonzero;stroke:none"
           d="m 0,0 c 0.046,-0.079 0.065,-0.174 0.049,-0.269 -0.036,-0.215 -0.238,-0.354 -0.45,-0.312 l -7.613,1.512 c -0.212,0.042 -0.355,0.25 -0.318,0.464 0.036,0.215 0.237,0.354 0.449,0.312 L -0.269,0.195 C -0.152,0.172 -0.056,0.098 0,0" />
      </g>
      <g
         transform="matrix(1.25,0,0,-1.25,-616.59403,726.2355)"
         id="g16573">
        <path
           inkscape:connector-curvature="0"
           id="path16575"
           style="fill:#46822e;fill-opacity:1;fill-rule:nonzero;stroke:none"
           d="M 0,0 C 0.061,-0.106 0.074,-0.238 0.024,-0.357 L -2.534,-6.39 c -0.084,-0.198 -0.313,-0.286 -0.511,-0.196 -0.198,0.091 -0.289,0.325 -0.206,0.524 l 2.558,6.032 C -0.609,0.169 -0.38,0.257 -0.182,0.166 -0.103,0.13 -0.041,0.071 0,0" />
      </g>
      <g
         transform="matrix(1.25,0,0,-1.25,-631.7369,735.15288)"
         id="g16577">
        <path
           inkscape:connector-curvature="0"
           id="path16579"
           style="fill:#46822e;fill-opacity:1;fill-rule:nonzero;stroke:none"
           d="m 0,0 c 0.061,-0.106 0.074,-0.238 0.024,-0.357 l -2.558,-6.032 c -0.084,-0.199 -0.313,-0.287 -0.511,-0.197 -0.198,0.091 -0.29,0.325 -0.206,0.524 l 2.558,6.032 C -0.609,0.169 -0.38,0.257 -0.182,0.166 -0.103,0.13 -0.041,0.071 0,0" />
      </g>
      <g
         transform="matrix(1.25,0,0,-1.25,-610.71802,732.34338)"
         id="g16581">
        <path
           inkscape:connector-curvature="0"
           id="path16583"
           style="fill:#46822e;fill-opacity:1;fill-rule:nonzero;stroke:none"
           d="M 0,0 C 0.042,-0.074 0.063,-0.161 0.052,-0.251 0.025,-0.467 -0.169,-0.616 -0.382,-0.584 l -3.853,0.574 c -0.214,0.032 -0.366,0.232 -0.34,0.449 0.027,0.216 0.221,0.365 0.434,0.333 L -0.288,0.198 C -0.163,0.179 -0.06,0.103 0,0" />
      </g>
    </g>
  </g>
</svg>
