<?xml version="1.0" encoding="UTF-8" standalone="no"?>
<!-- Created with Inkscape (http://www.inkscape.org/) -->

<svg
   xmlns:dc="http://purl.org/dc/elements/1.1/"
   xmlns:cc="http://creativecommons.org/ns#"
   xmlns:rdf="http://www.w3.org/1999/02/22-rdf-syntax-ns#"
   xmlns:svg="http://www.w3.org/2000/svg"
   xmlns="http://www.w3.org/2000/svg"
   xmlns:sodipodi="http://sodipodi.sourceforge.net/DTD/sodipodi-0.dtd"
   xmlns:inkscape="http://www.inkscape.org/namespaces/inkscape"
   width="7.2586379mm"
   height="6.7028623mm"
   viewBox="0 0 25.719583 23.750299"
   id="svg8918"
   version="1.1"
   inkscape:version="0.91 r13725"
   sodipodi:docname="piz_ing_pepperoni.svg">
  <defs
     id="defs8920">
    <clipPath
       id="clipPath16861"
       clipPathUnits="userSpaceOnUse">
      <path
         inkscape:connector-curvature="0"
         id="path16863"
         d="m 606.944,569.899 29.153,0 0,-21.27 -29.153,0 0,21.27 z" />
    </clipPath>
  </defs>
  <sodipodi:namedview
     id="base"
     pagecolor="#ffffff"
     bordercolor="#666666"
     borderopacity="1.0"
     inkscape:pageopacity="0.0"
     inkscape:pageshadow="2"
     inkscape:zoom="0.35"
     inkscape:cx="380.71694"
     inkscape:cy="834.73229"
     inkscape:document-units="px"
     inkscape:current-layer="layer1"
     showgrid="false"
     fit-margin-top="0"
     fit-margin-left="0"
     fit-margin-right="0"
     fit-margin-bottom="0"
     inkscape:window-width="1920"
     inkscape:window-height="1017"
     inkscape:window-x="-8"
     inkscape:window-y="-8"
     inkscape:window-maximized="1" />
  <metadata
     id="metadata8923">
    <rdf:RDF>
      <cc:Work
         rdf:about="">
        <dc:format>image/svg+xml</dc:format>
        <dc:type
           rdf:resource="http://purl.org/dc/dcmitype/StillImage" />
        <dc:title></dc:title>
      </cc:Work>
    </rdf:RDF>
  </metadata>
  <g
     inkscape:label="Layer 1"
     inkscape:groupmode="layer"
     id="layer1"
     transform="translate(427.14551,-1343.3442)">
    <g
       id="g31705"
       transform="matrix(0.45469477,0,0,0.45469477,-315.53233,1150.4056)">
      <g
         transform="matrix(1.25,0,0,-1.25,-190.97211,452.97652)"
         id="g16845">
        <path
           inkscape:connector-curvature="0"
           id="path16847"
           style="fill:#ed4c59;fill-opacity:1;fill-rule:nonzero;stroke:none"
           d="m 0,0 c 0,-10.419 -9.76,-18.866 -21.798,-18.866 -12.039,0 -21.799,8.447 -21.799,18.866 0,10.419 9.76,18.866 21.799,18.866 C -9.76,18.866 0,10.419 0,0" />
      </g>
      <g
         transform="matrix(1.25,0,0,-1.25,-188.90386,447.90802)"
         id="g16849">
        <path
           inkscape:connector-curvature="0"
           id="path16851"
           style="fill:#f26f7a;fill-opacity:1;fill-rule:nonzero;stroke:none"
           d="m 0,0 c 0,-10.419 -9.759,-18.866 -21.798,-18.866 -12.039,0 -21.799,8.447 -21.799,18.866 0,10.419 9.76,18.866 21.799,18.866 C -9.759,18.866 0,10.419 0,0" />
      </g>
      <g
         transform="matrix(1.25,0,0,-1.25,-193.40011,447.90802)"
         id="g16853">
        <path
           inkscape:connector-curvature="0"
           id="path16855"
           style="fill:#f2949b;fill-opacity:1;fill-rule:nonzero;stroke:none"
           d="m 0,0 c 0,-8.7 -8.149,-15.753 -18.201,-15.753 -10.053,0 -18.202,7.053 -18.202,15.753 0,8.7 8.149,15.753 18.202,15.753 C -8.149,15.753 0,8.7 0,0" />
      </g>
      <g
         transform="matrix(1.25,0,0,-1.25,-992.14286,1143.7908)"
         id="g16857">
        <g
           id="g16859" />
        <g
           id="g16865">
          <g
             style="opacity:0.19999701"
             id="g16867"
             clip-path="url(#clipPath16861)">
            <g
               id="g16869"
               transform="translate(618.8684,566.9244)">
              <path
                 inkscape:connector-curvature="0"
                 id="path16871"
                 style="fill:#ffffff;fill-opacity:1;fill-rule:nonzero;stroke:none"
                 d="m 0,0 c 8.385,0 15.183,-5.883 15.183,-13.141 0,-1.83 -0.433,-3.572 -1.214,-5.155 2.039,2.238 3.259,5.06 3.259,8.13 0,7.257 -6.797,13.141 -15.183,13.141 -6.271,0 -11.653,-3.291 -13.969,-7.986 C -9.144,-1.96 -4.838,0 0,0" />
            </g>
          </g>
        </g>
      </g>
    </g>
  </g>
</svg>
