<?xml version="1.0" encoding="UTF-8" standalone="no"?>
<!-- Created with Inkscape (http://www.inkscape.org/) -->

<svg
   xmlns:dc="http://purl.org/dc/elements/1.1/"
   xmlns:cc="http://creativecommons.org/ns#"
   xmlns:rdf="http://www.w3.org/1999/02/22-rdf-syntax-ns#"
   xmlns:svg="http://www.w3.org/2000/svg"
   xmlns="http://www.w3.org/2000/svg"
   xmlns:sodipodi="http://sodipodi.sourceforge.net/DTD/sodipodi-0.dtd"
   xmlns:inkscape="http://www.inkscape.org/namespaces/inkscape"
   width="9.6847172mm"
   height="12.098844mm"
   viewBox="0 0 34.315927 42.869918"
   id="svg10695"
   version="1.1"
   inkscape:version="0.91 r13725"
   sodipodi:docname="piz_ing_parsley.svg">
  <defs
     id="defs10697" />
  <sodipodi:namedview
     id="base"
     pagecolor="#ffffff"
     bordercolor="#666666"
     borderopacity="1.0"
     inkscape:pageopacity="0.0"
     inkscape:pageshadow="2"
     inkscape:zoom="0.35"
     inkscape:cx="-177.84204"
     inkscape:cy="10.006388"
     inkscape:document-units="px"
     inkscape:current-layer="layer1"
     showgrid="false"
     fit-margin-top="0"
     fit-margin-left="0"
     fit-margin-right="0"
     fit-margin-bottom="0"
     inkscape:window-width="1920"
     inkscape:window-height="1017"
     inkscape:window-x="-8"
     inkscape:window-y="-8"
     inkscape:window-maximized="1" />
  <metadata
     id="metadata10700">
    <rdf:RDF>
      <cc:Work
         rdf:about="">
        <dc:format>image/svg+xml</dc:format>
        <dc:type
           rdf:resource="http://purl.org/dc/dcmitype/StillImage" />
        <dc:title></dc:title>
      </cc:Work>
    </rdf:RDF>
  </metadata>
  <g
     inkscape:label="Layer 1"
     inkscape:groupmode="layer"
     id="layer1"
     transform="translate(-131.41347,-499.49867)">
    <g
       id="g31735"
       transform="matrix(0.45469477,0,0,0.45469477,-391.93262,65.421697)">
      <g
         transform="matrix(1.25,0,0,-1.25,1205.515,984.04825)"
         id="g16673">
        <path
           inkscape:connector-curvature="0"
           id="path16675"
           style="fill:#51851c;fill-opacity:1;fill-rule:nonzero;stroke:none"
           d="M 0,0 C 4.852,2.24 3.639,6.625 3.639,6.625 0.933,7.278 -1.866,4.479 -1.866,4.479 -1.586,5.785 -2.333,7.185 -2.333,7.185 -5.132,5.879 -5.972,3.639 -6.438,0.933 c -0.467,-2.706 -1.4,-3.732 -2.893,-3.452 -1.493,0.279 -1.493,3.919 2.986,7.744 4.479,3.826 3.172,7.559 3.172,7.559 -2.705,0.746 -6.065,-1.587 -6.065,-1.587 4.386,3.266 2.053,6.905 2.053,6.905 -3.079,-0.839 -4.199,-3.732 -4.199,-3.732 0.84,2.986 -0.186,9.144 -2.053,9.144 -1.866,0 -2.892,-6.158 -2.053,-9.144 0,0 -1.119,2.893 -4.198,3.732 0,0 -2.333,-3.639 2.052,-6.905 0,0 -3.359,2.333 -6.065,1.587 0,0 -1.306,-3.733 3.173,-7.559 4.479,-3.825 4.479,-7.465 2.986,-7.744 -1.493,-0.28 -2.426,0.746 -2.893,3.452 -0.466,2.706 -1.306,4.946 -4.106,6.252 0,0 -0.746,-1.4 -0.466,-2.706 0,0 -2.799,2.799 -5.506,2.146 0,0 -1.213,-4.385 3.64,-6.625 0,0 -2.147,0.093 -3.173,-0.653 0,0 0.84,-4.106 5.412,-4.386 4.572,-0.28 7.838,-2.053 8.678,-5.412 0.84,-3.359 1.866,-3.919 2.519,-3.919 0.654,0 1.68,0.56 2.52,3.919 0.84,3.359 4.105,5.132 8.678,5.412 4.572,0.28 5.412,4.386 5.412,4.386 C 2.146,0.093 0,0 0,0" />
      </g>
      <g
         transform="matrix(1.25,0,0,-1.25,1189.9745,1047.6836)"
         id="g16677">
        <path
           inkscape:connector-curvature="0"
           id="path16679"
           style="fill:#51851c;fill-opacity:1;fill-rule:nonzero;stroke:none"
           d="m 0,0 c 0,-0.555 -0.45,-1.004 -1.004,-1.004 -0.555,0 -1.005,0.449 -1.005,1.004 l 0,39.624 c 0,0.555 0.45,1.004 1.005,1.004 C -0.45,40.628 0,40.179 0,39.624 L 0,0 Z" />
      </g>
      <g
         transform="matrix(1.25,0,0,-1.25,1177.9633,998.18863)"
         id="g16681">
        <path
           inkscape:connector-curvature="0"
           id="path16683"
           style="fill:#51851c;fill-opacity:1;fill-rule:nonzero;stroke:none"
           d="M 0,0 C 1.333,4.117 -1.942,5.804 -1.942,5.804 -3.817,4.553 -3.689,1.35 -3.689,1.35 c -0.624,0.884 -1.867,1.209 -1.867,1.209 -0.76,-2.383 0.111,-4.113 1.464,-5.877 1.354,-1.764 1.452,-2.882 0.465,-3.617 -0.986,-0.734 -3.151,1.265 -2.967,6.031 0.185,4.766 -2.753,6.039 -2.753,6.039 -1.931,-1.2 -2.388,-4.48 -2.388,-4.48 0.466,4.403 -2.98,5.014 -2.98,5.014 -1.192,-2.293 -0.086,-4.548 -0.086,-4.548 -1.315,2.14 -5.543,4.912 -6.568,3.802 -1.025,-1.11 2.075,-5.104 4.312,-6.244 0,0 -2.336,0.923 -4.527,-0.448 0,0 0.884,-3.386 5.236,-2.571 0,0 -3.233,-0.717 -4.276,-2.737 0,0 1.503,-2.828 6.239,-2.265 4.737,0.563 6.901,-1.436 6.248,-2.478 -0.654,-1.041 -1.777,-1.033 -3.643,0.176 -1.866,1.209 -3.659,1.94 -5.974,0.992 0,0 0.422,-1.213 1.353,-1.764 0,0 -3.203,-0.128 -4.301,-2.096 0,0 1.943,-3.131 5.94,-1.474 0,0 -1.234,-1.226 -1.354,-2.247 0,0 2.904,-1.755 5.582,0.811 2.678,2.566 5.527,3.535 7.986,2.189 2.46,-1.345 3.357,-1.042 3.716,-0.654 0.358,0.389 0.589,1.307 -0.948,3.652 -1.537,2.345 -0.798,5.261 1.547,8.135 2.345,2.874 0.364,5.628 0.364,5.628 C 1.123,1.328 0,0 0,0" />
      </g>
      <g
         transform="matrix(1.25,0,0,-1.25,1189.2725,1025.7583)"
         id="g16685">
        <path
           inkscape:connector-curvature="0"
           id="path16687"
           style="fill:#51851c;fill-opacity:1;fill-rule:nonzero;stroke:none"
           d="m 0,0 c 0.33,-0.305 0.35,-0.819 0.046,-1.149 -0.305,-0.33 -0.819,-0.35 -1.149,-0.046 l -9.164,8.462 c -0.33,0.304 -0.35,0.819 -0.046,1.149 0.305,0.33 0.819,0.35 1.149,0.046 L 0,0 Z" />
      </g>
      <g
         transform="matrix(1.25,0,0,-1.25,1199.4748,998.18863)"
         id="g16689">
        <path
           inkscape:connector-curvature="0"
           id="path16691"
           style="fill:#51851c;fill-opacity:1;fill-rule:nonzero;stroke:none"
           d="M 0,0 C -1.333,4.117 1.942,5.804 1.942,5.804 3.817,4.553 3.689,1.35 3.689,1.35 4.313,2.234 5.555,2.559 5.555,2.559 6.316,0.176 5.445,-1.554 4.092,-3.318 2.738,-5.082 2.64,-6.2 3.627,-6.935 c 0.986,-0.734 3.151,1.265 2.967,6.031 -0.185,4.766 2.753,6.039 2.753,6.039 1.931,-1.2 2.388,-4.48 2.388,-4.48 -0.466,4.403 2.98,5.014 2.98,5.014 1.192,-2.293 0.086,-4.548 0.086,-4.548 1.315,2.14 5.543,4.912 6.568,3.802 1.025,-1.11 -2.075,-5.104 -4.312,-6.244 0,0 2.336,0.923 4.526,-0.448 0,0 -0.883,-3.386 -5.235,-2.571 0,0 3.233,-0.717 4.275,-2.737 0,0 -1.502,-2.828 -6.238,-2.265 -4.736,0.563 -6.901,-1.436 -6.248,-2.478 0.654,-1.041 1.777,-1.033 3.643,0.176 1.866,1.209 3.659,1.94 5.974,0.992 0,0 -0.422,-1.213 -1.353,-1.764 0,0 3.203,-0.128 4.301,-2.096 0,0 -1.943,-3.131 -5.941,-1.474 0,0 1.235,-1.226 1.355,-2.247 0,0 -2.904,-1.755 -5.582,0.811 -2.678,2.566 -5.527,3.535 -7.986,2.189 -2.46,-1.345 -3.357,-1.042 -3.716,-0.654 -0.358,0.389 -0.589,1.307 0.948,3.652 1.537,2.345 0.798,5.261 -1.547,8.135 -2.345,2.874 -0.364,5.628 -0.364,5.628 C -1.123,1.328 0,0 0,0" />
      </g>
      <g
         transform="matrix(1.25,0,0,-1.25,1188.1657,1025.7583)"
         id="g16693">
        <path
           inkscape:connector-curvature="0"
           id="path16695"
           style="fill:#51851c;fill-opacity:1;fill-rule:nonzero;stroke:none"
           d="m 0,0 c -0.33,-0.305 -0.35,-0.819 -0.046,-1.149 0.305,-0.33 0.819,-0.35 1.149,-0.046 l 9.164,8.462 c 0.33,0.304 0.35,0.819 0.046,1.149 -0.305,0.33 -0.819,0.35 -1.149,0.046 L 0,0 Z" />
      </g>
    </g>
  </g>
</svg>
