<?xml version="1.0" encoding="UTF-8" standalone="no"?>
<!-- Created with Inkscape (http://www.inkscape.org/) -->

<svg
   xmlns:dc="http://purl.org/dc/elements/1.1/"
   xmlns:cc="http://creativecommons.org/ns#"
   xmlns:rdf="http://www.w3.org/1999/02/22-rdf-syntax-ns#"
   xmlns:svg="http://www.w3.org/2000/svg"
   xmlns="http://www.w3.org/2000/svg"
   xmlns:sodipodi="http://sodipodi.sourceforge.net/DTD/sodipodi-0.dtd"
   xmlns:inkscape="http://www.inkscape.org/namespaces/inkscape"
   width="115.82924mm"
   height="115.82924mm"
   viewBox="0 0 410.41856 410.41856"
   id="svg8485"
   version="1.1"
   inkscape:version="0.91 r13725"
   sodipodi:docname="piz_rim.svg">
  <defs
     id="defs8487" />
  <sodipodi:namedview
     id="base"
     pagecolor="#ffffff"
     bordercolor="#666666"
     borderopacity="1.0"
     inkscape:pageopacity="0.0"
     inkscape:pageshadow="2"
     inkscape:zoom="0.35"
     inkscape:cx="1181.6378"
     inkscape:cy="-249.07642"
     inkscape:document-units="px"
     inkscape:current-layer="layer1"
     showgrid="false"
     fit-margin-top="0"
     fit-margin-left="0"
     fit-margin-right="0"
     fit-margin-bottom="0"
     inkscape:window-width="1920"
     inkscape:window-height="1017"
     inkscape:window-x="-8"
     inkscape:window-y="-8"
     inkscape:window-maximized="1" />
  <metadata
     id="metadata8490">
    <rdf:RDF>
      <cc:Work
         rdf:about="">
        <dc:format>image/svg+xml</dc:format>
        <dc:type
           rdf:resource="http://purl.org/dc/dcmitype/StillImage" />
        <dc:title></dc:title>
      </cc:Work>
    </rdf:RDF>
  </metadata>
  <g
     inkscape:label="Layer 1"
     inkscape:groupmode="layer"
     id="layer1"
     transform="translate(1228.0664,127.13279)">
    <g
       id="g15465"
       transform="matrix(1.2070815,0,0,-1.2070815,-1002.6198,250.02103)">
      <path
         d="m 0,0 c -0.913,0 -1.821,-0.043 -2.701,-0.129 -4.757,-0.462 -8.606,-2.12 -11.699,-3.451 -0.708,-0.304 -1.673,-0.72 -2.365,-0.978 -0.693,0.258 -1.658,0.674 -2.365,0.978 -3.093,1.331 -6.943,2.989 -11.702,3.451 C -31.71,-0.043 -32.619,0 -33.531,0 c -3.699,0 -6.955,-0.698 -9.57,-1.259 -0.714,-0.154 -1.677,-0.36 -2.387,-0.48 -0.623,0.387 -1.459,0.962 -2.076,1.387 -2.774,1.909 -6.226,4.285 -10.804,5.673 -3.834,1.161 -7.506,1.31 -10.278,1.31 -0.647,0 -1.295,-0.008 -1.944,-0.017 -0.899,-0.012 -1.904,-0.018 -2.449,-0.002 -0.532,0.5 -1.235,1.224 -1.755,1.76 -2.349,2.421 -5.274,5.434 -9.499,7.698 -4.249,2.274 -8.566,3.075 -11.719,3.659 -0.728,0.134 -1.711,0.317 -2.417,0.482 -0.424,0.592 -0.971,1.438 -1.376,2.064 -1.835,2.838 -4.12,6.37 -7.833,9.421 -3.721,3.057 -7.799,4.681 -10.778,5.866 -0.69,0.275 -1.624,0.647 -2.287,0.947 -0.299,0.663 -0.67,1.596 -0.946,2.286 -1.185,2.978 -2.809,7.057 -5.865,10.777 -3.051,3.713 -6.584,5.998 -9.423,7.834 -0.624,0.404 -1.471,0.952 -2.063,1.375 -0.165,0.706 -0.348,1.69 -0.482,2.417 -0.584,3.153 -1.385,7.472 -3.659,11.718 -2.264,4.227 -5.278,7.152 -7.699,9.502 -0.535,0.52 -1.26,1.223 -1.76,1.755 -0.022,0.722 -0.009,1.715 0.002,2.449 0.044,3.21 0.105,7.605 -1.293,12.221 -1.388,4.577 -3.763,8.029 -5.671,10.803 -0.426,0.618 -1.003,1.456 -1.39,2.079 0.121,0.709 0.328,1.672 0.48,2.386 0.676,3.146 1.601,7.455 1.132,12.272 -0.463,4.756 -2.121,8.605 -3.452,11.698 -0.304,0.708 -0.719,1.673 -0.977,2.366 0.258,0.692 0.673,1.657 0.977,2.365 1.331,3.093 2.989,6.942 3.452,11.701 0.469,4.815 -0.456,9.123 -1.131,12.27 -0.153,0.713 -0.36,1.677 -0.48,2.386 0.387,0.622 0.963,1.46 1.388,2.077 1.909,2.774 4.284,6.226 5.672,10.802 1.398,4.618 1.337,9.013 1.293,12.223 -0.011,0.734 -0.024,1.727 -0.002,2.449 0.5,0.532 1.225,1.235 1.76,1.755 2.42,2.35 5.434,5.274 7.698,9.499 2.275,4.25 3.075,8.567 3.659,11.72 0.135,0.726 0.317,1.71 0.482,2.417 0.592,0.423 1.439,0.97 2.063,1.374 2.839,1.837 6.372,4.121 9.423,7.835 3.055,3.72 4.68,7.799 5.865,10.777 0.276,0.69 0.647,1.624 0.947,2.286 0.662,0.3 1.595,0.671 2.285,0.946 2.979,1.186 7.059,2.81 10.778,5.866 3.713,3.052 5.998,6.584 7.835,9.423 0.404,0.625 0.951,1.472 1.374,2.064 0.707,0.164 1.69,0.347 2.417,0.481 3.153,0.585 7.472,1.385 11.718,3.66 4.227,2.263 7.152,5.277 9.502,7.698 0.519,0.535 1.223,1.26 1.755,1.76 0.545,0.018 1.552,0.011 2.45,-0.001 0.648,-0.009 1.296,-0.018 1.942,-0.018 2.772,0 6.445,0.149 10.278,1.31 4.577,1.387 8.03,3.763 10.804,5.672 0.618,0.426 1.457,1.003 2.079,1.389 0.703,-0.119 1.67,-0.327 2.386,-0.48 2.616,-0.562 5.871,-1.26 9.571,-1.26 0.911,0 1.819,0.043 2.698,0.129 4.759,0.463 8.608,2.119 11.699,3.45 0.709,0.305 1.674,0.721 2.367,0.979 0.692,-0.258 1.657,-0.673 2.366,-0.978 3.092,-1.332 6.941,-2.988 11.7,-3.451 0.879,-0.086 1.788,-0.129 2.699,-0.129 3.698,0 6.954,0.698 9.569,1.26 0.714,0.153 1.679,0.359 2.389,0.479 0.621,-0.386 1.457,-0.962 2.075,-1.387 2.774,-1.909 6.228,-4.286 10.807,-5.673 3.833,-1.161 7.505,-1.31 10.276,-1.31 0.645,0 1.294,0.009 1.942,0.018 0.897,0.012 1.904,0.02 2.45,0.001 0.532,-0.5 1.236,-1.224 1.755,-1.76 2.35,-2.421 5.274,-5.434 9.502,-7.698 4.245,-2.274 8.564,-3.075 11.717,-3.659 0.727,-0.135 1.711,-0.317 2.418,-0.482 0.422,-0.592 0.969,-1.438 1.374,-2.063 1.835,-2.839 4.12,-6.371 7.834,-9.422 3.721,-3.057 7.8,-4.681 10.777,-5.867 0.69,-0.274 1.625,-0.646 2.286,-0.945 0.3,-0.663 0.672,-1.596 0.947,-2.286 1.186,-2.979 2.81,-7.058 5.866,-10.777 3.051,-3.714 6.584,-5.999 9.423,-7.835 0.624,-0.404 1.47,-0.951 2.063,-1.375 0.164,-0.706 0.347,-1.69 0.482,-2.417 0.584,-3.153 1.385,-7.471 3.659,-11.718 2.263,-4.227 5.277,-7.152 7.699,-9.502 0.535,-0.52 1.26,-1.223 1.759,-1.755 0.023,-0.722 0.01,-1.715 -0.002,-2.449 -0.044,-3.209 -0.105,-7.604 1.294,-12.22 1.387,-4.578 3.762,-8.031 5.672,-10.805 0.424,-0.617 1,-1.455 1.388,-2.078 -0.12,-0.709 -0.327,-1.673 -0.48,-2.386 -0.675,-3.146 -1.6,-7.454 -1.131,-12.271 0.463,-4.757 2.12,-8.606 3.451,-11.699 0.304,-0.708 0.72,-1.673 0.978,-2.365 -0.258,-0.693 -0.674,-1.658 -0.978,-2.366 -1.331,-3.093 -2.988,-6.943 -3.451,-11.701 -0.469,-4.815 0.456,-9.124 1.13,-12.269 0.154,-0.714 0.361,-1.677 0.48,-2.387 -0.387,-0.623 -0.962,-1.459 -1.386,-2.076 -1.91,-2.774 -4.286,-6.227 -5.673,-10.804 -1.399,-4.617 -1.338,-9.012 -1.294,-12.222 0.012,-0.734 0.025,-1.727 0.002,-2.449 -0.499,-0.532 -1.224,-1.235 -1.759,-1.755 -2.422,-2.349 -5.434,-5.274 -7.698,-9.499 -2.275,-4.249 -3.075,-8.567 -3.66,-11.719 -0.134,-0.728 -0.317,-1.712 -0.481,-2.417 -0.593,-0.424 -1.439,-0.971 -2.064,-1.376 -2.838,-1.835 -6.37,-4.12 -9.422,-7.833 -3.057,-3.722 -4.68,-7.8 -5.866,-10.778 -0.275,-0.69 -0.646,-1.624 -0.947,-2.287 C 86.51,38.21 85.576,37.838 84.887,37.563 81.908,36.378 77.829,34.753 74.109,31.697 70.396,28.647 68.111,25.114 66.275,22.275 65.871,21.65 65.323,20.804 64.901,20.212 64.194,20.047 63.21,19.864 62.483,19.73 59.33,19.146 55.011,18.344 50.766,16.071 46.538,13.807 43.614,10.793 41.264,8.372 40.745,7.836 40.041,7.112 39.509,6.612 38.963,6.596 37.958,6.602 37.059,6.614 36.411,6.623 35.762,6.631 35.116,6.631 32.344,6.631 28.672,6.482 24.839,5.321 20.261,3.933 16.809,1.558 14.036,-0.35 13.416,-0.776 12.578,-1.353 11.956,-1.741 11.253,-1.62 10.286,-1.414 9.57,-1.26 6.955,-0.699 3.699,0 0,0 m -16.765,-27.558 c 5.711,0 10.355,1.999 13.746,3.459 0.797,0.343 1.945,0.838 2.569,1.042 0.661,-0.077 1.935,-0.35 2.819,-0.539 2.487,-0.534 5.583,-1.198 9.087,-1.198 1.694,0 3.355,0.158 4.937,0.471 5.598,1.108 9.764,3.974 12.805,6.067 0.719,0.495 1.754,1.208 2.33,1.533 0.243,0.019 0.671,0.039 1.402,0.039 0.485,0 0.971,-0.008 1.457,-0.014 0.621,-0.009 1.242,-0.017 1.858,-0.017 3.508,0 7.684,0.245 12.067,2.062 5.26,2.183 8.776,5.804 11.344,8.45 0.612,0.631 1.495,1.541 1.999,1.973 0.643,0.183 1.906,0.416 2.783,0.579 3.611,0.67 8.559,1.586 13.266,4.739 4.719,3.158 7.456,7.39 9.454,10.479 0.48,0.743 1.171,1.811 1.582,2.334 0.594,0.303 1.782,0.776 2.606,1.104 3.415,1.36 8.093,3.223 12.102,7.232 4.008,4.008 5.869,8.685 7.229,12.101 0.329,0.823 0.801,2.01 1.104,2.605 0.524,0.411 1.592,1.102 2.334,1.582 3.089,1.998 7.321,4.734 10.48,9.454 3.152,4.707 4.069,9.655 4.738,13.267 0.163,0.877 0.397,2.138 0.579,2.781 0.432,0.504 1.341,1.386 1.972,1.999 2.646,2.567 6.269,6.084 8.45,11.344 2.167,5.225 2.097,10.253 2.046,13.924 -0.013,0.896 -0.031,2.187 0.023,2.856 0.324,0.575 1.038,1.614 1.535,2.334 2.092,3.041 4.958,7.206 6.066,12.803 1.095,5.536 0.042,10.441 -0.727,14.024 -0.189,0.881 -0.461,2.151 -0.539,2.822 0.206,0.624 0.699,1.771 1.042,2.568 1.46,3.391 3.459,8.035 3.459,13.746 0,5.711 -1.999,10.355 -3.459,13.745 -0.343,0.797 -0.836,1.943 -1.042,2.568 0.078,0.67 0.351,1.939 0.539,2.82 0.77,3.583 1.823,8.49 0.727,14.025 -1.107,5.598 -3.974,9.763 -6.066,12.804 -0.497,0.721 -1.211,1.759 -1.535,2.334 -0.054,0.669 -0.036,1.961 -0.023,2.856 0.051,3.671 0.121,8.699 -2.046,13.925 -2.183,5.261 -5.804,8.776 -8.45,11.343 -0.631,0.613 -1.541,1.496 -1.973,1.999 -0.182,0.643 -0.416,1.907 -0.579,2.783 -0.67,3.612 -1.586,8.56 -4.737,13.266 -3.16,4.72 -7.391,7.456 -10.481,9.455 -0.742,0.479 -1.811,1.171 -2.334,1.582 -0.303,0.594 -0.776,1.782 -1.104,2.605 -1.36,3.416 -3.221,8.092 -7.23,12.101 -4.01,4.01 -8.687,5.872 -12.101,7.231 -0.824,0.328 -2.012,0.801 -2.606,1.104 -0.412,0.523 -1.102,1.592 -1.582,2.333 -1.998,3.09 -4.735,7.321 -9.455,10.481 -4.707,3.151 -9.654,4.068 -13.266,4.738 -0.876,0.162 -2.14,0.396 -2.782,0.579 -0.504,0.432 -1.387,1.342 -1.999,1.973 -2.568,2.645 -6.084,6.268 -11.342,8.448 -4.385,1.818 -8.562,2.063 -12.069,2.063 -0.617,0 -1.237,-0.008 -1.857,-0.017 -0.486,-0.006 -0.972,-0.013 -1.457,-0.013 -0.732,0 -1.16,0.02 -1.403,0.039 -0.575,0.325 -1.61,1.037 -2.33,1.532 -3.04,2.093 -7.205,4.959 -12.804,6.067 -1.582,0.313 -3.242,0.471 -4.936,0.471 -3.504,0 -6.6,-0.664 -9.088,-1.198 -0.88,-0.189 -2.15,-0.461 -2.82,-0.539 -0.625,0.206 -1.772,0.699 -2.568,1.042 -3.392,1.46 -8.035,3.459 -13.746,3.459 -5.711,0 -10.356,-1.999 -13.747,-3.459 -0.797,-0.343 -1.944,-0.837 -2.568,-1.043 -0.662,0.078 -1.937,0.351 -2.82,0.54 -2.487,0.534 -5.584,1.198 -9.088,1.198 -1.693,0 -3.353,-0.158 -4.935,-0.471 -5.598,-1.107 -9.764,-3.974 -12.806,-6.067 -0.719,-0.495 -1.754,-1.207 -2.33,-1.532 -0.242,-0.019 -0.671,-0.039 -1.403,-0.039 -0.483,0 -0.97,0.007 -1.456,0.013 -0.62,0.009 -1.239,0.017 -1.855,0.017 -3.509,0 -7.687,-0.245 -12.072,-2.063 -5.258,-2.181 -8.773,-5.804 -11.341,-8.449 -0.613,-0.631 -1.495,-1.541 -1.999,-1.972 -0.643,-0.183 -1.906,-0.417 -2.782,-0.58 -3.613,-0.67 -8.562,-1.586 -13.269,-4.739 -4.717,-3.158 -7.454,-7.39 -9.453,-10.48 -0.479,-0.742 -1.17,-1.811 -1.582,-2.334 -0.594,-0.303 -1.781,-0.775 -2.605,-1.103 -3.416,-1.36 -8.093,-3.222 -12.102,-7.232 -4.008,-4.008 -5.87,-8.685 -7.229,-12.1 -0.328,-0.824 -0.802,-2.011 -1.104,-2.605 -0.524,-0.412 -1.593,-1.103 -2.334,-1.583 -3.09,-1.998 -7.321,-4.735 -10.481,-9.454 -3.151,-4.708 -4.069,-9.655 -4.738,-13.267 -0.162,-0.876 -0.396,-2.138 -0.579,-2.781 -0.432,-0.504 -1.34,-1.386 -1.971,-1.998 -2.646,-2.568 -6.27,-6.084 -8.451,-11.344 -2.166,-5.227 -2.096,-10.254 -2.045,-13.926 0.012,-0.895 0.031,-2.186 -0.023,-2.855 -0.324,-0.575 -1.039,-1.613 -1.535,-2.334 -2.092,-3.041 -4.958,-7.206 -6.067,-12.804 -1.094,-5.536 -0.041,-10.441 0.727,-14.023 0.19,-0.881 0.462,-2.152 0.54,-2.822 -0.206,-0.624 -0.699,-1.771 -1.043,-2.568 -1.459,-3.39 -3.459,-8.034 -3.459,-13.745 0,-5.711 2,-10.356 3.459,-13.747 0.344,-0.796 0.837,-1.942 1.043,-2.567 -0.078,-0.67 -0.351,-1.94 -0.54,-2.82 -0.769,-3.583 -1.822,-8.49 -0.727,-14.025 1.108,-5.598 3.975,-9.763 6.067,-12.805 0.496,-0.72 1.211,-1.758 1.535,-2.334 0.054,-0.668 0.035,-1.959 0.023,-2.855 -0.051,-3.671 -0.121,-8.699 2.045,-13.925 2.183,-5.26 5.805,-8.776 8.45,-11.343 0.632,-0.613 1.541,-1.496 1.973,-1.999 0.183,-0.644 0.417,-1.906 0.579,-2.783 0.67,-3.612 1.587,-8.56 4.739,-13.267 3.158,-4.718 7.39,-7.455 10.48,-9.454 0.742,-0.479 1.81,-1.171 2.334,-1.581 0.302,-0.595 0.776,-1.782 1.103,-2.606 1.36,-3.416 3.223,-8.093 7.233,-12.102 4.007,-4.008 8.684,-5.87 12.1,-7.23 0.823,-0.329 2.011,-0.801 2.605,-1.104 0.411,-0.524 1.102,-1.592 1.582,-2.334 1.998,-3.089 4.735,-7.32 9.454,-10.48 4.707,-3.151 9.655,-4.069 13.268,-4.738 0.876,-0.163 2.137,-0.396 2.781,-0.579 0.504,-0.432 1.385,-1.341 1.998,-1.972 2.568,-2.646 6.084,-6.269 11.344,-8.45 4.382,-1.817 8.559,-2.062 12.067,-2.062 0.617,0 1.237,0.008 1.857,0.017 0.486,0.006 0.973,0.014 1.457,0.014 0.732,0 1.161,-0.02 1.402,-0.039 0.576,-0.325 1.612,-1.038 2.331,-1.533 3.041,-2.093 7.206,-4.958 12.803,-6.067 1.583,-0.313 3.243,-0.471 4.935,-0.471 3.505,0 6.601,0.664 9.09,1.198 0.88,0.189 2.151,0.462 2.821,0.539 0.624,-0.205 1.771,-0.699 2.568,-1.042 3.391,-1.46 8.035,-3.459 13.746,-3.459"
         style="fill:#f2b161;fill-opacity:1;fill-rule:nonzero;stroke:none"
         id="path15467"
         inkscape:connector-curvature="0" />
    </g>
  </g>
</svg>
