<?xml version="1.0" encoding="UTF-8" standalone="no"?>
<!-- Created with Inkscape (http://www.inkscape.org/) -->

<svg
   xmlns:dc="http://purl.org/dc/elements/1.1/"
   xmlns:cc="http://creativecommons.org/ns#"
   xmlns:rdf="http://www.w3.org/1999/02/22-rdf-syntax-ns#"
   xmlns:svg="http://www.w3.org/2000/svg"
   xmlns="http://www.w3.org/2000/svg"
   xmlns:sodipodi="http://sodipodi.sourceforge.net/DTD/sodipodi-0.dtd"
   xmlns:inkscape="http://www.inkscape.org/namespaces/inkscape"
   width="9.4217653mm"
   height="17.039646mm"
   viewBox="0 0 33.384208 60.376699"
   id="svg11871"
   version="1.1"
   inkscape:version="0.91 r13725"
   sodipodi:docname="piz_ing_shrimp.svg">
  <defs
     id="defs11873" />
  <sodipodi:namedview
     id="base"
     pagecolor="#ffffff"
     bordercolor="#666666"
     borderopacity="1.0"
     inkscape:pageopacity="0.0"
     inkscape:pageshadow="2"
     inkscape:zoom="0.35"
     inkscape:cx="370.26353"
     inkscape:cy="-232.66879"
     inkscape:document-units="px"
     inkscape:current-layer="layer1"
     showgrid="false"
     fit-margin-top="0"
     fit-margin-left="0"
     fit-margin-right="0"
     fit-margin-bottom="0"
     inkscape:window-width="1920"
     inkscape:window-height="1017"
     inkscape:window-x="-8"
     inkscape:window-y="-8"
     inkscape:window-maximized="1" />
  <metadata
     id="metadata11876">
    <rdf:RDF>
      <cc:Work
         rdf:about="">
        <dc:format>image/svg+xml</dc:format>
        <dc:type
           rdf:resource="http://purl.org/dc/dcmitype/StillImage" />
        <dc:title></dc:title>
      </cc:Work>
    </rdf:RDF>
  </metadata>
  <g
     inkscape:label="Layer 1"
     inkscape:groupmode="layer"
     id="layer1"
     transform="translate(416.69211,-239.31671)">
    <g
       id="g31719"
       transform="matrix(0.45469477,0,0,0.45469477,-227.2724,-2.8457107)">
      <g
         transform="matrix(1.25,0,0,-1.25,-371.32812,665.3675)"
         id="g16585">
        <path
           inkscape:connector-curvature="0"
           id="path16587"
           style="fill:#f86635;fill-opacity:1;fill-rule:nonzero;stroke:none"
           d="M 0,0 -9.277,19.437 12.145,17.217 0,0 Z" />
      </g>
      <g
         transform="matrix(1.25,0,0,-1.25,-354.65287,532.65488)"
         id="g16589">
        <path
           inkscape:connector-curvature="0"
           id="path16591"
           style="fill:#ff8e63;fill-opacity:1;fill-rule:nonzero;stroke:none"
           d="m 0,0 c 0,0 -0.418,-0.042 -1.202,-0.122 -0.392,-0.039 -0.875,-0.088 -1.444,-0.146 -0.284,-0.029 -0.589,-0.06 -0.915,-0.093 -0.163,-0.016 -0.331,-0.033 -0.504,-0.051 -0.152,-0.01 -0.465,-0.07 -0.699,-0.106 -1.02,-0.167 -2.146,-0.364 -3.365,-0.597 -0.601,-0.12 -1.258,-0.233 -1.876,-0.384 -0.581,-0.171 -1.183,-0.348 -1.804,-0.53 -0.619,-0.187 -1.258,-0.38 -1.915,-0.579 -0.327,-0.101 -0.659,-0.204 -0.996,-0.308 -0.328,-0.13 -0.66,-0.262 -0.996,-0.396 -1.336,-0.56 -2.762,-1.089 -4.182,-1.783 -1.395,-0.746 -2.871,-1.476 -4.322,-2.351 -0.708,-0.467 -1.427,-0.942 -2.158,-1.425 -0.717,-0.499 -1.485,-0.945 -2.166,-1.534 -0.697,-0.565 -1.402,-1.137 -2.117,-1.716 -0.354,-0.292 -0.709,-0.585 -1.068,-0.881 -0.332,-0.323 -0.667,-0.648 -1.004,-0.975 -0.666,-0.659 -1.339,-1.324 -2.018,-1.996 -0.692,-0.656 -1.264,-1.442 -1.903,-2.17 -0.614,-0.75 -1.265,-1.478 -1.847,-2.269 -0.557,-0.809 -1.118,-1.623 -1.683,-2.443 l -0.836,-1.235 -0.738,-1.309 c -0.482,-0.877 -0.967,-1.759 -1.454,-2.644 -0.461,-0.896 -0.83,-1.846 -1.243,-2.771 -0.383,-0.94 -0.844,-1.846 -1.124,-2.83 -0.618,-1.941 -1.304,-3.86 -1.661,-5.869 -0.204,-0.996 -0.44,-1.983 -0.602,-2.981 -0.113,-1.004 -0.226,-2.008 -0.338,-3.009 L -48.337,-47 c -0.039,-0.499 -0.025,-1 -0.038,-1.498 -0.007,-0.995 -0.014,-1.987 -0.021,-2.975 l 0.004,-1.008 0.053,-0.617 0.103,-1.228 0.052,-0.612 c 0.016,-0.198 0.032,-0.398 0.072,-0.681 l 0.208,-1.554 c 0.074,-0.515 0.148,-1.027 0.222,-1.538 0.085,-0.493 0.193,-0.943 0.29,-1.412 0.21,-0.927 0.371,-1.854 0.651,-2.748 0.95,-3.611 2.324,-6.958 3.921,-9.944 1.599,-2.986 3.363,-5.657 5.249,-7.901 0.448,-0.579 0.919,-1.118 1.398,-1.629 0.473,-0.514 0.935,-1.016 1.385,-1.505 0.969,-0.913 1.831,-1.829 2.748,-2.578 1.779,-1.554 3.437,-2.769 4.84,-3.703 0.708,-0.456 1.34,-0.863 1.89,-1.217 0.571,-0.32 1.056,-0.591 1.45,-0.812 0.786,-0.436 1.206,-0.668 1.206,-0.668 2.803,-1.554 6.334,-0.541 7.888,2.262 1.447,2.609 0.669,5.85 -1.707,7.539 l -0.405,0.285 c 0,0 -0.295,0.208 -0.848,0.598 -0.277,0.193 -0.618,0.431 -1.018,0.71 -0.381,0.307 -0.818,0.659 -1.308,1.053 -0.967,0.798 -2.097,1.821 -3.279,3.093 -0.619,0.607 -1.166,1.359 -1.808,2.081 -0.288,0.389 -0.584,0.788 -0.886,1.196 -0.311,0.401 -0.61,0.823 -0.885,1.277 -1.194,1.744 -2.237,3.787 -3.143,5.994 -0.904,2.21 -1.614,4.627 -1.999,7.171 -0.139,0.626 -0.165,1.28 -0.246,1.924 -0.032,0.319 -0.082,0.656 -0.101,0.962 l -0.026,0.871 -0.04,0.87 c -0.012,0.121 -0.008,0.33 -0.004,0.54 l 0.01,0.614 0.021,1.232 0.01,0.619 c -0.002,0.073 0.011,-0.493 0.007,-0.239 l 0.004,0.031 0.008,0.062 0.015,0.125 0.031,0.249 c 0.076,0.663 0.153,1.328 0.229,1.995 0.043,0.331 0.056,0.667 0.119,0.995 l 0.222,0.981 0.419,1.958 c 0.178,0.642 0.417,1.269 0.613,1.903 0.34,1.286 0.962,2.472 1.468,3.68 0.223,0.617 0.616,1.159 0.919,1.734 0.332,0.562 0.609,1.147 0.967,1.684 0.372,0.527 0.741,1.053 1.109,1.575 l 0.541,0.781 0.623,0.716 c 0.406,0.478 0.809,0.953 1.209,1.424 0.414,0.458 0.888,0.857 1.314,1.286 0.452,0.406 0.828,0.876 1.316,1.224 0.465,0.368 0.925,0.732 1.38,1.093 l 0.67,0.542 0.721,0.458 c 0.471,0.307 0.937,0.61 1.396,0.909 0.437,0.33 0.952,0.524 1.414,0.78 0.468,0.246 0.928,0.487 1.381,0.725 0.927,0.427 1.863,0.746 2.722,1.12 0.882,0.321 1.767,0.514 2.573,0.776 0.203,0.061 0.404,0.121 0.602,0.18 0.204,0.035 0.407,0.07 0.605,0.104 0.396,0.072 0.78,0.142 1.152,0.21 0.369,0.072 0.726,0.142 1.071,0.209 0.318,0.04 0.578,0.032 0.85,0.056 0.532,0.035 1.013,0.083 1.446,0.137 0.129,0.01 0.166,0.037 0.363,0.033 l 0.506,0 c 0.328,0 0.635,0 0.92,0 l 1.451,0 1.209,0 c 6.213,0 8.053,5.417 8.053,11.63 C 9.19,-4.598 7.349,0.058 1.136,0.058 0.759,0.058 0.368,0.036 0,0" />
      </g>
      <g
         transform="matrix(1.25,0,0,-1.25,-396.602,640.677)"
         id="g16593">
        <path
           inkscape:connector-curvature="0"
           id="path16595"
           style="fill:#f86635;fill-opacity:1;fill-rule:nonzero;stroke:none"
           d="m 0,0 c 1.616,-2.272 4.548,-2.96 6.549,-1.537 l 5.2,3.698 c 2.002,1.423 2.314,4.419 0.698,6.691 -1.615,2.272 -4.548,2.96 -6.549,1.537 L 0.698,6.691 C -1.303,5.268 -1.616,2.272 0,0" />
      </g>
      <g
         transform="matrix(1.25,0,0,-1.25,-411.77988,618.62175)"
         id="g16597">
        <path
           inkscape:connector-curvature="0"
           id="path16599"
           style="fill:#f86635;fill-opacity:1;fill-rule:nonzero;stroke:none"
           d="m 0,0 c 1.019,-2.875 3.898,-4.477 6.43,-3.579 l 6.579,2.332 c 2.532,0.898 3.759,3.956 2.739,6.83 -1.019,2.875 -3.898,4.477 -6.43,3.58 L 2.74,6.83 C 0.207,5.933 -1.019,2.875 0,0" />
      </g>
      <g
         transform="matrix(1.25,0,0,-1.25,-416.56812,590.07575)"
         id="g16601">
        <path
           inkscape:connector-curvature="0"
           id="path16603"
           style="fill:#f86635;fill-opacity:1;fill-rule:nonzero;stroke:none"
           d="m 0,0 c -0.223,-3.528 2.116,-6.547 5.224,-6.743 l 8.074,-0.509 c 3.108,-0.196 5.807,2.505 6.03,6.033 0.223,3.528 -2.116,6.547 -5.224,6.743 L 6.03,6.033 C 2.922,6.229 0.223,3.528 0,0" />
      </g>
      <g
         transform="matrix(1.25,0,0,-1.25,-405.03525,557.4775)"
         id="g16605">
        <path
           inkscape:connector-curvature="0"
           id="path16607"
           style="fill:#f86635;fill-opacity:1;fill-rule:nonzero;stroke:none"
           d="m 0,0 c -2.332,-3.154 -1.969,-7.376 0.809,-9.43 l 7.219,-5.337 c 2.778,-2.054 6.921,-1.162 9.253,1.993 2.332,3.154 1.969,7.376 -0.809,9.43 L 9.253,1.992 C 6.474,4.046 2.332,3.154 0,0" />
      </g>
      <g
         transform="matrix(1.25,0,0,-1.25,-370.86887,533.72638)"
         id="g16609">
        <path
           inkscape:connector-curvature="0"
           id="path16611"
           style="fill:#f86635;fill-opacity:1;fill-rule:nonzero;stroke:none"
           d="m 0,0 c -4.123,-1.196 -6.612,-5.111 -5.558,-8.743 l 2.738,-9.436 c 1.054,-3.632 5.25,-5.607 9.374,-4.411 4.123,1.197 6.612,5.111 5.558,8.743 L 9.374,-4.411 C 8.32,-0.779 4.123,1.196 0,0" />
      </g>
    </g>
  </g>
</svg>
