<?xml version="1.0" encoding="UTF-8" standalone="no"?>
<!-- Created with Inkscape (http://www.inkscape.org/) -->

<svg
   xmlns:dc="http://purl.org/dc/elements/1.1/"
   xmlns:cc="http://creativecommons.org/ns#"
   xmlns:rdf="http://www.w3.org/1999/02/22-rdf-syntax-ns#"
   xmlns:svg="http://www.w3.org/2000/svg"
   xmlns="http://www.w3.org/2000/svg"
   xmlns:sodipodi="http://sodipodi.sourceforge.net/DTD/sodipodi-0.dtd"
   xmlns:inkscape="http://www.inkscape.org/namespaces/inkscape"
   width="15.062998mm"
   height="14.76382mm"
   viewBox="0 0 53.372827 52.312747"
   id="svg6434"
   version="1.1"
   inkscape:version="0.91 r13725"
   sodipodi:docname="piz_ing_yellowpepper.svg">
  <defs
     id="defs6436">
    <clipPath
       id="clipPath16209"
       clipPathUnits="userSpaceOnUse">
      <path
         inkscape:connector-curvature="0"
         id="path16211"
         d="m 620.335,454.124 61.177,0 0,-59.757 -61.177,0 0,59.757 z" />
    </clipPath>
  </defs>
  <sodipodi:namedview
     id="base"
     pagecolor="#ffffff"
     bordercolor="#666666"
     borderopacity="1.0"
     inkscape:pageopacity="0.0"
     inkscape:pageshadow="2"
     inkscape:zoom="0.35"
     inkscape:cx="674.54355"
     inkscape:cy="343.29923"
     inkscape:document-units="px"
     inkscape:current-layer="layer1"
     showgrid="false"
     fit-margin-top="0"
     fit-margin-left="0"
     fit-margin-right="0"
     fit-margin-bottom="0"
     inkscape:window-width="1920"
     inkscape:window-height="1017"
     inkscape:window-x="-8"
     inkscape:window-y="-8"
     inkscape:window-maximized="1" />
  <metadata
     id="metadata6439">
    <rdf:RDF>
      <cc:Work
         rdf:about="">
        <dc:format>image/svg+xml</dc:format>
        <dc:type
           rdf:resource="http://purl.org/dc/dcmitype/StillImage" />
        <dc:title></dc:title>
      </cc:Work>
    </rdf:RDF>
  </metadata>
  <g
     inkscape:label="Layer 1"
     inkscape:groupmode="layer"
     id="layer1"
     transform="translate(720.97212,-823.34869)">
    <g
       id="g31541"
       transform="matrix(0.5972286,0,0,0.5972286,-887.15484,244.2235)">
      <g
         transform="matrix(1.25,0,0,-1.25,320.89146,979.14514)"
         id="g16201">
        <path
           inkscape:connector-curvature="0"
           id="path16203"
           style="fill:#ffcf0f;fill-opacity:1;fill-rule:nonzero;stroke:none"
           d="m 0,0 c -8.473,0 -15.367,-6.894 -15.367,-15.367 0,-1.738 0.292,-3.451 0.867,-5.09 0.677,-1.928 -0.3,-4.045 -2.207,-4.781 -5.883,-2.272 -9.835,-8.034 -9.835,-14.337 0,-8.473 6.894,-15.367 15.367,-15.367 4.333,0 8.488,1.846 11.399,5.064 1.308,1.446 3.502,1.661 5.065,0.496 2.663,-1.982 5.832,-3.03 9.164,-3.03 8.473,0 15.367,6.893 15.367,15.366 0,7.145 -4.849,13.291 -11.792,14.944 -1.926,0.459 -3.172,2.324 -2.859,4.279 0.131,0.819 0.198,1.645 0.198,2.456 C 15.367,-6.894 8.473,0 0,0 m -11.175,-62.508 c -12.646,0 -22.933,10.288 -22.933,22.933 0,8.253 4.538,15.882 11.578,19.919 -0.268,1.409 -0.403,2.844 -0.403,4.289 0,12.645 10.288,22.933 22.933,22.933 12.645,0 22.933,-10.288 22.933,-22.933 0,-0.121 -0.001,-0.243 -0.003,-0.365 8.654,-3.416 14.456,-11.767 14.456,-21.314 0,-12.645 -10.288,-22.933 -22.933,-22.933 -3.881,0 -7.614,0.954 -10.957,2.781 -4.095,-3.405 -9.291,-5.31 -14.671,-5.31" />
      </g>
      <g
         transform="matrix(1.25,0,0,-1.25,-490.71429,1543.7908)"
         id="g16205">
        <g
           id="g16207" />
        <g
           id="g16213">
          <g
             style="opacity:0.39999402"
             id="g16215"
             clip-path="url(#clipPath16209)">
            <g
               id="g16217"
               transform="translate(663.7373,399.3042)">
              <path
                 inkscape:connector-curvature="0"
                 id="path16219"
                 style="fill:#ffffff;fill-opacity:1;fill-rule:nonzero;stroke:none"
                 d="m 0,0 c -3.332,0 -6.5,1.048 -9.163,3.031 -1.564,1.164 -3.758,0.95 -5.065,-0.497 -2.911,-3.218 -7.066,-5.064 -11.4,-5.064 -8.473,0 -15.367,6.894 -15.367,15.367 0,6.304 3.953,12.065 9.836,14.337 1.906,0.736 2.883,2.853 2.206,4.782 -0.575,1.638 -0.866,3.351 -0.866,5.089 0,8.473 6.893,15.367 15.366,15.367 8.474,0 15.367,-6.894 15.367,-15.367 0,-0.81 -0.066,-1.637 -0.198,-2.456 C 0.403,32.634 1.65,30.769 3.575,30.31 10.518,28.657 15.367,22.511 15.367,15.366 15.367,6.893 8.473,0 0,0 m 4.133,32.652 c -0.696,0.166 -1.153,0.849 -1.039,1.556 0.151,0.944 0.228,1.9 0.228,2.837 0,9.801 -7.974,17.775 -17.775,17.775 -9.8,0 -17.774,-7.974 -17.774,-17.775 0,-2.011 0.337,-3.992 1.003,-5.887 0.247,-0.706 -0.105,-1.469 -0.803,-1.739 -6.804,-2.627 -11.375,-9.291 -11.375,-16.582 0,-9.801 7.973,-17.774 17.774,-17.774 5.013,0 9.818,2.135 13.185,5.857 0.264,0.291 0.627,0.452 1.022,0.452 0.207,0 0.518,-0.047 0.82,-0.272 3.081,-2.294 6.747,-3.508 10.601,-3.508 9.801,0 17.774,7.974 17.774,17.774 0,8.266 -5.609,15.374 -13.641,17.286" />
            </g>
          </g>
        </g>
      </g>
    </g>
  </g>
</svg>
