<?xml version="1.0" encoding="UTF-8" standalone="no"?>
<!-- Created with Inkscape (http://www.inkscape.org/) -->

<svg
   xmlns:dc="http://purl.org/dc/elements/1.1/"
   xmlns:cc="http://creativecommons.org/ns#"
   xmlns:rdf="http://www.w3.org/1999/02/22-rdf-syntax-ns#"
   xmlns:svg="http://www.w3.org/2000/svg"
   xmlns="http://www.w3.org/2000/svg"
   xmlns:sodipodi="http://sodipodi.sourceforge.net/DTD/sodipodi-0.dtd"
   xmlns:inkscape="http://www.inkscape.org/namespaces/inkscape"
   width="13.623255mm"
   height="13.623255mm"
   viewBox="0 0 48.271375 48.271375"
   id="svg8478"
   version="1.1"
   inkscape:version="0.91 r13725"
   sodipodi:docname="piz_ing_salami.svg">
  <defs
     id="defs8480" />
  <sodipodi:namedview
     id="base"
     pagecolor="#ffffff"
     bordercolor="#666666"
     borderopacity="1.0"
     inkscape:pageopacity="0.0"
     inkscape:pageshadow="2"
     inkscape:zoom="0.35"
     inkscape:cx="906.27853"
     inkscape:cy="961.27855"
     inkscape:document-units="px"
     inkscape:current-layer="layer1"
     showgrid="false"
     fit-margin-top="0"
     fit-margin-left="0"
     fit-margin-right="0"
     fit-margin-bottom="0"
     inkscape:window-width="1920"
     inkscape:window-height="1017"
     inkscape:window-x="-8"
     inkscape:window-y="-8"
     inkscape:window-maximized="1" />
  <metadata
     id="metadata8483">
    <rdf:RDF>
      <cc:Work
         rdf:about="">
        <dc:format>image/svg+xml</dc:format>
        <dc:type
           rdf:resource="http://purl.org/dc/dcmitype/StillImage" />
        <dc:title></dc:title>
      </cc:Work>
    </rdf:RDF>
  </metadata>
  <g
     inkscape:label="Layer 1"
     inkscape:groupmode="layer"
     id="layer1"
     transform="translate(952.7071,-1445.3694)">
    <g
       id="g31395"
       transform="matrix(0.45469477,0,0,0.45469477,-1005.5177,946.59131)">
      <g
         transform="matrix(1.25,0,0,-1.25,147.23284,1137.9562)"
         id="g15485">
        <path
           inkscape:connector-curvature="0"
           id="path15487"
           style="fill:#ffffff;fill-opacity:1;fill-rule:nonzero;stroke:none"
           d="M 0,0 C -2.033,1.134 -2.762,3.701 -1.629,5.734 -0.495,7.767 2.072,8.496 4.105,7.363 6.138,6.229 6.868,3.662 5.734,1.629 4.6,-0.405 2.033,-1.134 0,0" />
      </g>
      <g
         transform="matrix(1.25,0,0,-1.25,127.64334,1171.1952)"
         id="g15489">
        <path
           inkscape:connector-curvature="0"
           id="path15491"
           style="fill:#ffffff;fill-opacity:1;fill-rule:nonzero;stroke:none"
           d="M 0,0 C -1.581,0.882 -2.148,2.879 -1.267,4.46 -0.385,6.041 1.612,6.608 3.193,5.726 4.774,4.845 5.341,2.848 4.46,1.267 3.578,-0.315 1.581,-0.882 0,0" />
      </g>
      <g
         transform="matrix(1.25,0,0,-1.25,147.33096,1183.2536)"
         id="g15505">
        <path
           inkscape:connector-curvature="0"
           id="path15507"
           style="fill:#c72845;fill-opacity:1;fill-rule:nonzero;stroke:none"
           d="M 0,0 C -2.465,1.375 -3.349,4.487 -1.975,6.952 -0.6,9.417 2.513,10.301 4.978,8.927 7.443,7.552 8.327,4.439 6.952,1.975 5.578,-0.49 2.465,-1.374 0,0" />
      </g>
      <g
         transform="matrix(1.25,0,0,-1.25,129.04259,1148.4369)"
         id="g15509">
        <path
           inkscape:connector-curvature="0"
           id="path15511"
           style="fill:#c72845;fill-opacity:1;fill-rule:nonzero;stroke:none"
           d="M 0,0 C -1.771,0.988 -2.407,3.225 -1.419,4.996 -0.431,6.768 1.806,7.403 3.577,6.415 5.349,5.427 5.984,3.191 4.996,1.419 4.008,-0.352 1.772,-0.988 0,0" />
      </g>
      <g
         transform="matrix(1.25,0,0,-1.25,154.32021,1159.1607)"
         id="g15517">
        <path
           inkscape:connector-curvature="0"
           id="path15519"
           style="fill:#c72845;fill-opacity:1;fill-rule:nonzero;stroke:none"
           d="M 0,0 C -1.694,0.945 -2.302,3.084 -1.357,4.778 -0.412,6.473 1.727,7.08 3.421,6.135 5.115,5.191 5.723,3.051 4.778,1.357 3.834,-0.337 1.694,-0.945 0,0" />
      </g>
      <g
         transform="matrix(1.25,0,0,-1.25,143.37971,1196.3847)"
         id="g15525">
        <path
           inkscape:connector-curvature="0"
           id="path15527"
           style="fill:#ed4c6a;fill-opacity:1;fill-rule:nonzero;stroke:none"
           d="M 0,0 C -20.48,11.42 -27.824,37.279 -16.405,57.759 -4.985,78.239 20.874,85.583 41.354,74.164 61.834,62.744 69.179,36.884 57.759,16.405 46.339,-4.075 20.48,-11.42 0,0" />
      </g>
      <g
         transform="matrix(1.25,0,0,-1.25,147.25734,1189.4306)"
         id="g15529">
        <path
           inkscape:connector-curvature="0"
           id="path15531"
           style="fill:#fc627e;fill-opacity:1;fill-rule:nonzero;stroke:none"
           d="M 0,0 C -17.407,9.706 -23.65,31.686 -13.943,49.094 -4.237,66.501 17.743,72.743 35.15,63.037 52.557,53.331 58.8,31.351 49.094,13.943 39.387,-3.464 17.407,-9.706 0,0" />
      </g>
      <g
         transform="matrix(1.25,0,0,-1.25,189.18759,1128.3128)"
         id="g15533">
        <path
           inkscape:connector-curvature="0"
           id="path15535"
           style="fill:#ffffff;fill-opacity:1;fill-rule:nonzero;stroke:none"
           d="m 0,0 c -2.033,1.134 -2.762,3.701 -1.628,5.734 1.133,2.033 3.7,2.762 5.733,1.628 C 6.138,6.229 6.868,3.662 5.734,1.629 4.6,-0.405 2.033,-1.134 0,0" />
      </g>
      <g
         transform="matrix(1.25,0,0,-1.25,169.59808,1161.5517)"
         id="g15537">
        <path
           inkscape:connector-curvature="0"
           id="path15539"
           style="fill:#ffffff;fill-opacity:1;fill-rule:nonzero;stroke:none"
           d="M 0,0 C -1.581,0.882 -2.148,2.878 -1.267,4.46 -0.385,6.041 1.612,6.608 3.193,5.726 4.774,4.845 5.341,2.848 4.46,1.267 3.578,-0.315 1.581,-0.882 0,0" />
      </g>
      <g
         transform="matrix(1.25,0,0,-1.25,141.69196,1167.4731)"
         id="g15541">
        <path
           inkscape:connector-curvature="0"
           id="path15543"
           style="fill:#ffffff;fill-opacity:1;fill-rule:nonzero;stroke:none"
           d="M 0,0 C -2.067,1.152 -2.808,3.762 -1.656,5.829 -0.503,7.896 2.107,8.637 4.173,7.484 6.24,6.332 6.981,3.722 5.829,1.656 4.676,-0.411 2.067,-1.152 0,0" />
      </g>
      <g
         transform="matrix(1.25,0,0,-1.25,148.90584,1128.9653)"
         id="g15545">
        <path
           inkscape:connector-curvature="0"
           id="path15547"
           style="fill:#ffffff;fill-opacity:1;fill-rule:nonzero;stroke:none"
           d="M 0,0 C -2.56,1.427 -3.478,4.66 -2.051,7.22 -0.623,9.781 2.61,10.699 5.17,9.271 7.73,7.844 8.648,4.611 7.22,2.051 5.793,-0.509 2.56,-1.428 0,0" />
      </g>
      <g
         transform="matrix(1.25,0,0,-1.25,145.28709,1148.7378)"
         id="g15549">
        <path
           inkscape:connector-curvature="0"
           id="path15551"
           style="fill:#c72845;fill-opacity:1;fill-rule:nonzero;stroke:none"
           d="M 0,0 C -2.465,1.374 -3.349,4.487 -1.974,6.952 -0.6,9.417 2.513,10.301 4.977,8.927 7.443,7.552 8.326,4.439 6.952,1.974 5.578,-0.491 2.465,-1.375 0,0" />
      </g>
      <g
         transform="matrix(1.25,0,0,-1.25,189.28571,1173.6102)"
         id="g15553">
        <path
           inkscape:connector-curvature="0"
           id="path15555"
           style="fill:#c72845;fill-opacity:1;fill-rule:nonzero;stroke:none"
           d="M 0,0 C -2.465,1.374 -3.349,4.487 -1.974,6.952 -0.6,9.417 2.513,10.301 4.977,8.927 7.443,7.552 8.327,4.439 6.952,1.975 5.578,-0.491 2.465,-1.374 0,0" />
      </g>
      <g
         transform="matrix(1.25,0,0,-1.25,170.99733,1138.7934)"
         id="g15557">
        <path
           inkscape:connector-curvature="0"
           id="path15559"
           style="fill:#c72845;fill-opacity:1;fill-rule:nonzero;stroke:none"
           d="M 0,0 C -1.771,0.988 -2.407,3.225 -1.419,4.996 -0.431,6.768 1.806,7.403 3.577,6.415 5.349,5.427 5.984,3.191 4.996,1.419 4.008,-0.352 1.772,-0.988 0,0" />
      </g>
      <g
         transform="matrix(1.25,0,0,-1.25,153.41134,1181.5573)"
         id="g15561">
        <path
           inkscape:connector-curvature="0"
           id="path15563"
           style="fill:#c72845;fill-opacity:1;fill-rule:nonzero;stroke:none"
           d="M 0,0 C -1.355,0.756 -1.841,2.467 -1.086,3.823 -0.33,5.178 1.382,5.664 2.737,4.908 4.092,4.153 4.578,2.441 3.823,1.086 3.067,-0.27 1.355,-0.756 0,0" />
      </g>
      <g
         transform="matrix(1.25,0,0,-1.25,196.27509,1149.5172)"
         id="g15565">
        <path
           inkscape:connector-curvature="0"
           id="path15567"
           style="fill:#c72845;fill-opacity:1;fill-rule:nonzero;stroke:none"
           d="M 0,0 C -1.694,0.945 -2.302,3.084 -1.357,4.778 -0.412,6.473 1.727,7.08 3.421,6.135 5.115,5.191 5.723,3.051 4.778,1.357 3.833,-0.337 1.694,-0.945 0,0" />
      </g>
      <g
         transform="matrix(1.25,0,0,-1.25,172.72259,1183.9767)"
         id="g15569">
        <path
           inkscape:connector-curvature="0"
           id="path15571"
           style="fill:#ffffff;fill-opacity:1;fill-rule:nonzero;stroke:none"
           d="M 0,0 C -1.91,1.065 -2.595,3.477 -1.53,5.387 -0.465,7.298 1.947,7.983 3.857,6.917 5.768,5.852 6.453,3.44 5.387,1.53 4.322,-0.38 1.91,-1.065 0,0" />
      </g>
    </g>
  </g>
</svg>
