<?xml version="1.0" encoding="UTF-8" standalone="no"?>
<!-- Created with Inkscape (http://www.inkscape.org/) -->

<svg
   xmlns:dc="http://purl.org/dc/elements/1.1/"
   xmlns:cc="http://creativecommons.org/ns#"
   xmlns:rdf="http://www.w3.org/1999/02/22-rdf-syntax-ns#"
   xmlns:svg="http://www.w3.org/2000/svg"
   xmlns="http://www.w3.org/2000/svg"
   xmlns:sodipodi="http://sodipodi.sourceforge.net/DTD/sodipodi-0.dtd"
   xmlns:inkscape="http://www.inkscape.org/namespaces/inkscape"
   width="8.576725mm"
   height="6.6662378mm"
   viewBox="0 0 30.38997 23.620528"
   id="svg7063"
   version="1.1"
   inkscape:version="0.91 r13725"
   sodipodi:docname="piz_ing_mushroom.svg">
  <defs
     id="defs7065" />
  <sodipodi:namedview
     id="base"
     pagecolor="#ffffff"
     bordercolor="#666666"
     borderopacity="1.0"
     inkscape:pageopacity="0.0"
     inkscape:pageshadow="2"
     inkscape:zoom="0.35"
     inkscape:cx="1231.6236"
     inkscape:cy="508.95311"
     inkscape:document-units="px"
     inkscape:current-layer="layer1"
     showgrid="false"
     fit-margin-top="0"
     fit-margin-left="0"
     fit-margin-right="0"
     fit-margin-bottom="0"
     inkscape:window-width="1920"
     inkscape:window-height="1017"
     inkscape:window-x="-8"
     inkscape:window-y="-8"
     inkscape:window-maximized="1" />
  <metadata
     id="metadata7068">
    <rdf:RDF>
      <cc:Work
         rdf:about="">
        <dc:format>image/svg+xml</dc:format>
        <dc:type
           rdf:resource="http://purl.org/dc/dcmitype/StillImage" />
        <dc:title></dc:title>
      </cc:Work>
    </rdf:RDF>
  </metadata>
  <g
     inkscape:label="Layer 1"
     inkscape:groupmode="layer"
     id="layer1"
     transform="translate(1278.0521,-1017.6948)">
    <g
       id="g31645"
       transform="matrix(0.45469477,0,0,0.45469477,-1365.4466,973.12027)">
      <g
         transform="matrix(1.25,0,0,-1.25,227.39464,112.06407)"
         id="g16241">
        <path
           inkscape:connector-curvature="0"
           id="path16243"
           style="fill:#fcdcb8;fill-opacity:1;fill-rule:nonzero;stroke:none"
           d="m 0,0 c 12.12,-1.345 21.739,-8.459 24.491,-17.158 1.338,4.37 1.259,9.648 -1.806,14.548 C 15.59,8.735 5.91,10.481 1.221,11.002 -3.468,11.522 -13.295,11.941 -22.706,2.428 -26.77,-1.681 -28.005,-6.813 -27.657,-11.37 -23.065,-3.486 -12.12,1.345 0,0" />
      </g>
      <g
         transform="matrix(1.25,0,0,-1.25,255.15589,120.6927)"
         id="g16245">
        <path
           inkscape:connector-curvature="0"
           id="path16247"
           style="fill:#6e6158;fill-opacity:1;fill-rule:nonzero;stroke:none"
           d="m 0,0 c -7.129,11.042 -16.954,11.478 -21.643,11.999 -4.69,0.52 -14.371,2.249 -23.748,-6.961 -9.377,-9.21 -3.592,-23.811 1.905,-24.421 5.497,-0.61 8.604,7.906 8.208,9.476 -0.395,1.571 -5.577,-2.352 -6.711,-0.593 -1.134,1.759 0.706,6.358 4.181,8.59 3.476,2.231 10.32,0.599 8.812,-2.723 -0.504,-1.111 -1.181,-4.407 -1.561,-5.613 l 12.732,-1.413 c -0.106,1.26 -0.044,4.624 -0.292,5.818 -0.743,3.572 6.293,3.664 9.194,0.725 2.902,-2.94 3.688,-7.83 2.196,-9.298 -1.492,-1.468 -5.688,3.497 -6.418,2.051 -0.73,-1.446 0.434,-10.435 5.931,-11.046 C -1.717,-24.019 7.129,-11.042 0,0" />
      </g>
      <g
         transform="matrix(1.25,0,0,-1.25,253.38151,126.82795)"
         id="g16249">
        <path
           inkscape:connector-curvature="0"
           id="path16251"
           style="fill:#6e6158;fill-opacity:1;fill-rule:nonzero;stroke:none"
           d="m 0,0 c -6.815,11.007 -16.269,11.402 -20.779,11.903 -4.511,0.5 -13.821,2.188 -22.884,-7.057 -9.063,-9.245 4.293,-17.27 3.209,-15.517 -1.084,1.754 0.706,6.359 4.06,8.604 3.354,2.244 9.935,0.642 8.469,-2.685 -0.489,-1.112 -1.154,-4.41 -1.525,-5.616 l 12.247,-1.36 c -0.097,1.259 -0.023,4.622 -0.257,5.814 -0.7,3.568 6.071,3.688 8.852,0.763 2.78,-2.926 3.516,-7.811 2.074,-9.284 C -7.976,-15.909 6.815,-11.007 0,0" />
      </g>
      <g
         transform="matrix(1.25,0,0,-1.25,255.50339,117.56183)"
         id="g16253">
        <path
           inkscape:connector-curvature="0"
           id="path16255"
           style="fill:#fcdcb8;fill-opacity:1;fill-rule:nonzero;stroke:none"
           d="m 0,0 c -7.129,11.042 -16.811,12.77 -21.5,13.29 -4.689,0.521 -14.514,0.958 -23.891,-8.252 -9.377,-9.21 -3.592,-23.81 1.905,-24.421 5.497,-0.61 8.326,5.401 7.93,6.972 -0.395,1.57 -5.299,0.152 -6.433,1.911 -1.134,1.759 0.706,6.358 4.181,8.59 3.476,2.231 10.32,0.599 8.812,-2.723 -1.508,-3.323 -2.737,-9.265 -2.98,-13.164 -0.05,-0.808 -0.058,-1.561 0.007,-2.258 l 13.371,-1.485 c 0.216,0.666 0.374,1.403 0.502,2.203 0.618,3.857 0.722,9.924 -0.021,13.496 -0.743,3.572 6.293,3.664 9.194,0.725 2.902,-2.94 3.688,-7.83 2.196,-9.298 -1.492,-1.468 -5.966,0.992 -6.696,-0.454 -0.73,-1.445 0.712,-7.93 6.209,-8.541 C -1.717,-24.019 7.129,-11.042 0,0" />
      </g>
      <g
         transform="matrix(1.25,0,0,-1.25,232.26026,144.48682)"
         id="g16257">
        <path
           inkscape:connector-curvature="0"
           id="path16259"
           style="fill:#bda286;fill-opacity:1;fill-rule:nonzero;stroke:none"
           d="m 0,0 c -0.259,-2.338 -3.465,-3.901 -7.159,-3.49 -3.694,0.409 -6.478,2.637 -6.219,4.975 0.259,2.338 3.465,3.9 7.159,3.49 C -2.525,4.565 0.259,2.338 0,0" />
      </g>
    </g>
  </g>
</svg>
