<?xml version="1.0" encoding="UTF-8" standalone="no"?>
<!-- Created with Inkscape (http://www.inkscape.org/) -->

<svg
   xmlns:dc="http://purl.org/dc/elements/1.1/"
   xmlns:cc="http://creativecommons.org/ns#"
   xmlns:rdf="http://www.w3.org/1999/02/22-rdf-syntax-ns#"
   xmlns:svg="http://www.w3.org/2000/svg"
   xmlns="http://www.w3.org/2000/svg"
   xmlns:sodipodi="http://sodipodi.sourceforge.net/DTD/sodipodi-0.dtd"
   xmlns:inkscape="http://www.inkscape.org/namespaces/inkscape"
   width="6.8312206mm"
   height="22.913706mm"
   viewBox="0 0 24.205112 81.190296"
   id="svg12472"
   version="1.1"
   inkscape:version="0.91 r13725"
   sodipodi:docname="piz_ing_bacon.svg">
  <defs
     id="defs12474" />
  <sodipodi:namedview
     id="base"
     pagecolor="#ffffff"
     bordercolor="#666666"
     borderopacity="1.0"
     inkscape:pageopacity="0.0"
     inkscape:pageshadow="2"
     inkscape:zoom="0.35"
     inkscape:cx="365.67398"
     inkscape:cy="37.738002"
     inkscape:document-units="px"
     inkscape:current-layer="layer1"
     showgrid="false"
     fit-margin-top="0"
     fit-margin-left="0"
     fit-margin-right="0"
     fit-margin-bottom="0"
     inkscape:window-width="1920"
     inkscape:window-height="1017"
     inkscape:window-x="-8"
     inkscape:window-y="-8"
     inkscape:window-maximized="1" />
  <metadata
     id="metadata12477">
    <rdf:RDF>
      <cc:Work
         rdf:about="">
        <dc:format>image/svg+xml</dc:format>
        <dc:type
           rdf:resource="http://purl.org/dc/dcmitype/StillImage" />
        <dc:title></dc:title>
      </cc:Work>
    </rdf:RDF>
  </metadata>
  <g
     inkscape:label="Layer 1"
     inkscape:groupmode="layer"
     id="layer1"
     transform="translate(412.10255,-488.90991)">
    <g
       id="g31561"
       transform="matrix(0.45469477,0,0,0.45469477,-503.95176,187.39475)">
      <g
         transform="matrix(1.25,0,0,-1.25,248.81203,663.11577)"
         id="g16437">
        <path
           inkscape:connector-curvature="0"
           id="path16439"
           style="fill:#f4c8b2;fill-opacity:1;fill-rule:nonzero;stroke:none"
           d="m 0,0 c 0,-19.816 -8.933,-17.03 -8.933,-37.156 0,-20.126 8.279,-18.268 9.369,-35.917 1.089,-17.649 -7.626,-25.08 -7.626,-38.085 0,-13.004 7.19,-23.532 8.279,-31.273 l -29.196,0 c 0,16.411 -6.319,26.938 -6.319,39.633 0,12.695 8.062,19.197 8.062,38.704 0,19.507 -6.319,17.34 -6.319,33.75 0,16.411 2.397,17.959 2.397,30.344 L 0,0 Z" />
      </g>
      <g
         transform="matrix(1.25,0,0,-1.25,216.7094,743.23302)"
         id="g16441">
        <path
           inkscape:connector-curvature="0"
           id="path16443"
           style="fill:#cf5b25;fill-opacity:1;fill-rule:nonzero;stroke:none"
           d="m 0,0 c 0,19.507 -6.319,17.339 -6.319,33.75 0,16.41 2.397,17.958 2.397,30.344 l -3.704,0 c 0,-12.386 -2.397,-13.934 -2.397,-30.344 0,-16.411 6.319,-14.243 6.319,-33.75 0,-19.507 -8.062,-26.009 -8.062,-38.704 0,-12.695 6.319,-23.222 6.319,-39.633 l 3.704,0 c 0,16.411 -6.319,26.938 -6.319,39.633 C -8.062,-26.009 0,-19.507 0,0" />
      </g>
      <g
         transform="matrix(1.25,0,0,-1.25,225.67453,751.70564)"
         id="g16445">
        <path
           inkscape:connector-curvature="0"
           id="path16447"
           style="fill:#cf5b25;fill-opacity:1;fill-rule:nonzero;stroke:none"
           d="m 0,0 c 0,19.507 -7.863,24.117 -7.863,40.528 0,16.41 4.526,17.959 4.526,30.344 l -1.591,0 c 0,-12.385 -4.527,-13.934 -4.527,-30.344 0,-16.411 7.863,-21.021 7.863,-40.528 0,-19.507 -9.606,-21.204 -9.606,-33.899 0,-12.695 8.733,-21.249 8.733,-37.66 l 1.592,0 c 0,16.411 -8.733,24.965 -8.733,37.66 C -9.606,-21.204 0,-19.507 0,0" />
      </g>
      <g
         transform="matrix(1.25,0,0,-1.25,244.88566,802.58427)"
         id="g16449">
        <path
           inkscape:connector-curvature="0"
           id="path16451"
           style="fill:#cf5b25;fill-opacity:1;fill-rule:nonzero;stroke:none"
           d="m 0,0 c 0,13.005 8.715,20.436 7.626,38.085 -1.09,17.649 -9.369,15.791 -9.369,35.917 0,20.126 8.933,17.339 8.933,37.156 l -4.743,0 c 0,-19.817 -8.933,-17.03 -8.933,-37.156 0,-20.126 8.28,-18.268 9.369,-35.917 C 3.972,20.436 -4.743,13.005 -4.743,0 c 0,-13.005 6.486,-23.532 7.576,-31.273 l 5.447,0 C 7.19,-23.532 0,-13.005 0,0" />
      </g>
      <g
         transform="matrix(1.25,0,0,-1.25,230.37653,802.06302)"
         id="g16453">
        <path
           inkscape:connector-curvature="0"
           id="path16455"
           style="fill:#cf5b25;fill-opacity:1;fill-rule:nonzero;stroke:none"
           d="m 0,0 c 0,13.005 8.715,20.436 7.626,38.085 -1.09,17.649 -8.751,19.477 -8.751,39.603 0,20.126 8.315,13.653 8.315,33.47 l -5.976,0 c 0,-19.817 -8.315,-13.344 -8.315,-33.47 0,-20.126 7.662,-21.954 8.751,-39.603 C 2.74,20.436 -5.976,13.005 -5.976,0 c 0,-13.005 7.19,-23.532 8.28,-31.273 l 5.976,0 C 7.19,-23.532 0,-13.005 0,0" />
      </g>
    </g>
  </g>
</svg>
