<?xml version="1.0" encoding="UTF-8" standalone="no"?>
<!-- Created with Inkscape (http://www.inkscape.org/) -->

<svg
   xmlns:dc="http://purl.org/dc/elements/1.1/"
   xmlns:cc="http://creativecommons.org/ns#"
   xmlns:rdf="http://www.w3.org/1999/02/22-rdf-syntax-ns#"
   xmlns:svg="http://www.w3.org/2000/svg"
   xmlns="http://www.w3.org/2000/svg"
   xmlns:sodipodi="http://sodipodi.sourceforge.net/DTD/sodipodi-0.dtd"
   xmlns:inkscape="http://www.inkscape.org/namespaces/inkscape"
   width="17.369587mm"
   height="16.455431mm"
   viewBox="0 0 61.545781 58.306645"
   id="svg11286"
   version="1.1"
   inkscape:version="0.91 r13725"
   sodipodi:docname="piz_ing_redonion.svg">
  <defs
     id="defs11288" />
  <sodipodi:namedview
     id="base"
     pagecolor="#ffffff"
     bordercolor="#666666"
     borderopacity="1.0"
     inkscape:pageopacity="0.0"
     inkscape:pageshadow="2"
     inkscape:zoom="0.35"
     inkscape:cx="-4.2271106"
     inkscape:cy="1006.2961"
     inkscape:document-units="px"
     inkscape:current-layer="layer1"
     showgrid="false"
     fit-margin-top="0"
     fit-margin-left="0"
     fit-margin-right="0"
     fit-margin-bottom="0"
     inkscape:window-width="1920"
     inkscape:window-height="1017"
     inkscape:window-x="-8"
     inkscape:window-y="-8"
     inkscape:window-maximized="1" />
  <metadata
     id="metadata11291">
    <rdf:RDF>
      <cc:Work
         rdf:about="">
        <dc:format>image/svg+xml</dc:format>
        <dc:type
           rdf:resource="http://purl.org/dc/dcmitype/StillImage" />
        <dc:title></dc:title>
      </cc:Work>
    </rdf:RDF>
  </metadata>
  <g
     inkscape:label="Layer 1"
     inkscape:groupmode="layer"
     id="layer1"
     transform="translate(42.201461,-1480.3517)">
    <g
       id="g31639"
       transform="matrix(0.45469477,0,0,0.45469477,224.88973,1053.4699)">
      <g
         transform="matrix(1.25,0,0,-1.25,-518.91016,943.9328)"
         id="g19893">
        <path
           inkscape:connector-curvature="0"
           id="path19895"
           style="fill:#b04c88;fill-opacity:1;fill-rule:nonzero;stroke:none"
           d="m 0,0 c -28.428,0 -50.491,-18.965 -50.491,-47.212 0,-28.247 21.407,-47.212 49.835,-47.212 28.429,0 49.835,20.276 49.835,48.523 C 49.179,-17.653 28.428,0 0,0 m -0.656,-98.505 c -30.885,0 -54.142,20.604 -54.142,51.293 0,30.689 23.969,51.293 54.855,51.293 30.886,0 53.43,-19.179 53.43,-49.868 0,-30.689 -23.257,-52.718 -54.143,-52.718" />
      </g>
      <g
         transform="matrix(1.25,0,0,-1.25,-518.98016,948.97255)"
         id="g19897">
        <path
           inkscape:connector-curvature="0"
           id="path19899"
           style="fill:#edd1e2;fill-opacity:1;fill-rule:nonzero;stroke:none"
           d="m 0,0 c -26.001,0 -46.179,-17.345 -46.179,-43.18 0,-25.835 19.579,-43.18 45.579,-43.18 26.001,0 45.579,18.544 45.579,44.379 C 44.979,-16.146 26.001,0 0,0 m -0.6,-91.392 c -29.03,0 -50.89,19.366 -50.89,48.212 0,28.845 22.529,48.212 51.56,48.212 29.03,0 50.22,-18.027 50.22,-46.873 0,-28.846 -21.859,-49.551 -50.89,-49.551" />
      </g>
    </g>
  </g>
</svg>
